<svg viewBox="0 0 650 250" xmlns="http://www.w3.org/2000/svg" xmlns:xlink="http://www.w3.org/1999/xlink"><linearGradient id="a" gradientTransform="matrix(.80479 0 0 .63365 354.84 382.18)" gradientUnits="userSpaceOnUse" x1="-112.95" x2="-121.25" y1="723.48" y2="921.14"><stop offset="0" stop-color="#3465a4"/><stop offset="1" stop-color="#ad7fa8"/></linearGradient><linearGradient id="b" gradientUnits="userSpaceOnUse" x2="0" y1="1057.2" y2="997.68"><stop offset="0" stop-color="#729fcf"/><stop offset="1" stop-color="#555753"/></linearGradient><g transform="matrix(1.0028 0 0 .97508 1.1245 -813.5)"><path d="m.59319 834.29h645.66v170.5h-645.66z" fill="url(#a)"/><path d="m-648.63 997.68h649.22v93.004h-649.22z" fill="url(#b)" transform="matrix(-.99785 0 0 1 -.1411 0)"/><g fill="#2e3436" stroke="#000" stroke-width=".82697"><path d="m-.71366 1004.6v-24.809l12.405-8.2697v33.079h-12.405z"/><path d="m11.691 971.55h12.405v33.079h-12.405z"/><path d="m24.096 1004.6v-4.1349l28.944-4.1348v-4.1349h8.2697v-4.1349h20.674v8.2697h16.539v-41.349h4.1349v-4.1349h4.1349v-4.1349h12.405v57.888h-95.102z"/><path d="m106.79 1004.6v-53.753h4.1349v-4.1349h8.2697v57.888h-12.405z"/><path d="m119.2 1004.6v-78.562h8.2697v78.562z"/><path d="m119.2 926.07v-28.944h8.2697v28.944z"/><path d="m119.2 897.12v-4.1349h8.2697v4.1349z"/><path d="m119.69 892.94 3.6456-16.497h4.1349v16.539l-7.7804-.0428z"/><path d="m128.15 875.69 24.122.75689c4.264 10.61 3.473 19.535 4.1349 28.944v99.237h-28.944l.6868-128.94z"/><path d="m156.41 996.36h14.597l2.9139-7.0487 3.1636 7.0487h8.2697v-12.405h8.2697v20.674h-37.214v-8.2697z"/><path d="m193.62 1004.6v-20.674l12.405-4.1349v24.809h-12.405z"/><path d="m206.79 1003.1-.7639-23.274h24.809v24.809l-24.045-1.5348z"/><path d="m230.84 1004.6v-24.809h45.483v24.809z"/><path d="m251.51 979.82v-37.214h.24969l-.24969-4.1349h4.1349v-4.1349h4.1349v45.483h-8.2697z"/><path d="m259.78 979.82v-49.618h12.405l4.1349 8.2697v66.158-24.809h-16.539z"/><path d="m276.32 979.82v24.809h49.618v-4.1349h-4.1349v-12.405h-12.405v-8.2697h-33.079z"/><path d="m309.4 988.09v-28.944h4.1349v-4.1349h4.1349v-4.1349h4.1349v-4.1349l12.405-4.1349v-12.405 12.405h4.1348v8.2697h4.1349v53.753h-33.079v-16.539z"/><path d="m342.48 1004.6v-20.674h41.349v20.674z"/><path d="m354.11 983.52.7709-36.779h28.944v37.214h-33.079l3.364-.43451z"/><path d="m383.83 988.09h20.674l4.1349 4.1349h20.674v12.405h-45.483v-16.539z"/><path d="m391.32 987.98.77921-12.299h4.1349v12.405l-4.9141-.10513z"/><path d="m429.31 988.09v-8.2697l4.1349-4.1349v-8.2697s10.104.61135 14.239.61135c.81869 0-.80821 24.198.59417 24.198h5.8415v12.405h-24.809v-16.539z"/><path d="m454.12 1004.6v-12.405l16.539-4.1349v8.2697h16.539l.48565 8.5194-33.565-.2497z"/><path d="m487.2 1004.6v-33.079h8.2697v-4.1349h20.674v4.1349h4.1349v33.079h-33.079z"/><path d="m520.28 1004.6v-41.349h12.405l9.9764-.24969 6.5631.24969v41.349h-28.944z"/><path d="m549.22 1004.6v-41.349l1.7066.7216-.48565-8.7416 15.318-.24969v49.618h-16.539z"/><path d="m565.76 1004.6v-16.539h4.1349v-8.2697h12.405v-4.1349h24.809v4.1349h4.1349v24.809h-45.483z"/><path d="m611.25 1004.6v-12.405h12.405v-12.405l4.1349-4.1349h8.2697l4.1349 4.1349v-4.1349h8.2697v28.944h-37.214z" transform="matrix(.95363 0 0 1.0006 28.155 -.5441)"/></g></g></svg>