<svg viewBox="0 0 1944 2592" xmlns="http://www.w3.org/2000/svg"><path d="m-406.50393 1721.7847c0-320.7104.2523-401.8673 1.25-402.0014.6875-.0924 2.9546-.4436 5.0379-.7805 2.8008-.4528 3.7129-.2783 3.5.6696-.1583.7052.6222 1.7689 1.7346 2.3638 1.1433.6116 1.8721 1.8425 1.6767 2.8318-.3799 1.9224 3.1913 2.5452 4.3008.75.3399-.55.1415-1-.441-1s-1.059-.45-1.059-1 1.6053-1 3.5674-1c3.0864 0 3.4836.2639 2.9461 1.9574-.5023 1.5828.0051 2.1198 2.6506 2.8053 2.2881.5929 3.4453 1.5829 3.8489 3.2926.7885 3.3399 3.4082 3.1297 3.8034-.3053.174-1.5125.8491-2.7508 1.5-2.7517.8028-.0012 1.1836 2.3313 1.1836 7.25 0 6.585.1839 7.2517 2 7.2517 1.3241 0 2.1099-.7751 2.3252-2.2935.2432-1.7149.7897-2.1461 2.1659-1.7093 1.0123.3213 2.1195.1328 2.4604-.4188.4085-.6608 1.462-.6193 3.0884.1218 1.3577.6186 2.6855.9077 2.9507.6425.8191-.8191.892-7.2033.1133-9.9294-.6877-2.4079-.54-2.5575 2.1356-2.1648 1.7849.2619 3.3518-.1536 4.1343-1.0964 1.1157-1.3444 1.4814-1.2969 3.1931.4148 2.4472 2.4472 2.4786 3.8885.0708 3.2589-2.3876-.6244-3.6998 3.5407-1.7346 5.5059 1.1033 1.1032 1.7128 1.1129 3.4085.0539 1.5923-.9944 2.5941-1.0264 4.3767-.1398 4.372 2.1746 17.1514 3.0676 22.8117 1.5942 2.839-.7391 3.5624-1.4509 3.8303-3.7689.1816-1.5718-.4711-4.3458-1.4504-6.1643-1.6129-2.995-1.6348-3.476-.2323-5.1066.8516-.9901 1.8277-2.5877 2.169-3.5502.761-2.1459 2.27-2.2698 3.045-.25.3166.825 1.0397 1.5 1.607 1.5 1.3238 0 1.3495-3.6854.0314-4.5-1.7328-1.0709-1.0868-2.5 1.13-2.5 1.933 0 2.0832-.4164 1.6229-4.4995-.6029-5.3496-2.1444-7.5005-5.3754-7.5005-1.3076 0-2.3775-.45-2.3775-1s.8673-1 1.9274-1 2.7984-1.1072 3.8629-2.4605c1.6998-2.1609 2.1606-2.2959 3.7848-1.1082s1.6738 1.5639.4249 3.0687c-1.2445 1.4996-1.2082 1.8746.2877 2.9685 2.0074 1.4677 2.2442 6.27.4983 10.1019-1.0849 2.3811-.9552 2.8742 1.2192 4.6349 2.0442 1.6553 3.3177 1.8635 7.964 1.3019 3.042-.3676 6.5823-1.3431 7.8676-2.1677 3.4488-2.2128 3.7902-.8734.7104 2.7868l-2.7017 3.2107 5.1093 2.5138c4.7253 2.3248 5.2319 2.3911 6.7413.8816 1.2749-1.2748 1.3747-1.9421.4562-3.0489-.6468-.7793-1.0993-2.2644-1.0057-3.3002.4543-5.0245-.1824-7.3833-1.993-7.3833-2.4826 0-8.1536-2.8941-8.1536-4.1611 0-.6245 1.4916-.7627 3.8787-.3594 3.6609.6185 3.9387.4831 4.948-2.4121 1.152-3.3047 2.1633-3.6783 5.3464-1.9748 1.428.7643 2.3577.7766 3.0933.041 1.4166-1.4166 9.6404-.243 12.4414 1.7754 1.3702.9874 2.0085 2.2549 1.6826 3.341-.2889.9625-.0449 1.75.5422 1.75s1.0674-.6239 1.0674-1.3865c0-1.6858 5.6275-2.6844 8.6725-1.5391 2.8982 1.0901 5.049-1.2307 2.8398-3.0642-.8318-.6903-1.5123-2.1562-1.5123-3.2576 0-1.6918-.4657-1.9095-3-1.4026-2.2601.452-3 .2323-3-.8909 0-1.0293-.898-1.4224-2.9004-1.2699-3.5921.2737-6.2933-1.8338-5.8979-4.6017.2395-1.6759.8899-2.0234 3.2983-1.7625 1.65.1787 3.7875 1.0359 4.75 1.9049 2.2751 2.0542 2.2751.733 0-1.6348-1.6298-1.6962-3.4729-2.3574-10.5122-3.771-3.5871-.7203-4.3741-2.1163-2.34-4.1505 1.3444-1.3444 1.9843-1.4161 3.6048-.4041 3.1213 1.9493 3.9984 1.4856 3.3474-1.7695-.449-2.2449-.23-3 .87-3 2.149 0 5.3302 3.9117 4.9671 6.1078-.2357 1.4259.2901 1.8922 2.1334 1.8922 1.6052 0 2.626.6876 2.9692 2 .7023 2.6853 3.7103 2.6094 3.7103-.0936 0-1.2526-.8034-2.3037-2-2.6167-1.1-.2876-2-.8837-2-1.3245s-.2594-1.4776-.5765-2.3038c-.3911-1.0193.1461-1.6082 1.6712-1.8318 1.4216-.2085 3.101-1.8677 4.5697-4.5149 2.124-3.8284 2.1862-4.3212.7295-5.7779-1.3418-1.3418-1.3818-1.8464-.2543-3.205.8778-1.0577 1.4672-5.3803 1.7131-12.5638l.3748-10.9514 2.8863-1.0061c1.5874-.5534 2.9424-1.4121 3.0112-1.9083s.2351-2.1397.3697-3.6522.7308-8.0488 1.3249-14.5251.8203-13.9693.5027-16.6511c-.5721-4.8309.411-16.6739 1.3095-15.7753.2568.2568.6423 8.0572.8567 17.3342s.4171 17.0349.4506 17.2397.7559-.2043 1.6054-.9093c1.0387-.8621 1.347-2.1807.9414-4.0272-.3504-1.5953-.1307-3.0374.5243-3.4422.7664-.4737.9079-2.7447.442-7.0952-.4769-4.4532-.3458-6.3985.4313-6.3985.6141 0 1.1165-.9061 1.1165-2.0136s.5625-2.9212 1.25-4.0305c1.0303-1.6624.9864-2.1846-.25-2.9711-1.1615-.7388-.8794-.9576 1.25-.9695 1.5125-.0084 2.6967-.3528 2.6316-.7653s-.0583-1.425.0153-2.25c.1189-1.3333.2414-1.3333 1.1031 0 .8284 1.2819.9716 1.2455.9847-.25.0084-.9625.6637-1.75 1.4563-1.75 2.0884 0 2.918-1.8625 1.559-3.5-1.5862-1.9113-.4141-3.5 2.5821-3.5 2.3984 0 2.4204-.0665.8259-2.5-1.3421-2.0484-1.3827-2.5-.2245-2.5.7775 0 3.2811-1.7945 5.5636-3.9877s4.4247-3.5433 4.7605-3c1.0211 1.6522 3.2793 1.1025 3.1313-.7623-.0982-1.237.5939-1.75 2.3611-1.75 2.0516 0 2.548.5381 2.7678 3 .4209 4.7158 2.4044 11.5 3.3622 11.5.4785 0 .87-.6199.87-1.3776s.7112-1.9677 1.5804-2.6891c.9197-.7633 1.3963-2.275 1.1399-3.6161-.5299-2.7719 1.927-5.3998 2.8353-3.0328.3187.8303.478 2.1185.3542 2.8626-.287 1.7243 1.1223 5.1325 2.5173 6.0877.7212.4938.6631.7397-.1771.75-.6875.0084-1.25.9153-1.25 2.0153s.3401 2 .7559 2 1.3828 1.4625 2.1491 3.25c2.0043 4.6756 3.2578 6.1047 4.1245 4.7023.432-.699.9464-.1845 1.3255 1.3261.8611 3.4308 4.2063 4.473 18.145 5.6528 16.321 1.3814 29.5674 2.9924 30.7833 3.7439.6639.4103.768 10.1887.3058 28.7235-.5987 24.0078-.4853 28.3927.7787 30.1014 1.3073 1.7671 1.305 2.1935-.0191 3.6616-2.1084 2.3376-1.377 7.2236 1.1513 7.6913 1.1.2035 2.3759 1.0236 2.8354 1.8224s1.8095 1.8285 3 2.2884c1.9931.7697 2.0209.894.3508 1.5676-1.2705.5125-2.2609.0933-3.3067-1.3998-1.9531-2.7886-4.3482-2.7254-4.4979.1185-.795 15.1075-.6775 20.8491.4193 20.488.6595-.2171 1.3429-1.3719 1.5186-2.5663.2034-1.3824 1.0327-2.1717 2.2814-2.1717 2.0022 0 2.2801-.4375 3.3346-5.25.4884-2.2287 1.1519-2.75 3.5002-2.75 1.5937 0 3.0631-.4965 3.2654-1.1034s.9424 1.1386 1.6447 3.8787l1.2768 4.982 5.1066.4907c5.5343.5318 7.7708 2.4055 7.7708 6.5105 0 1.9398.3762 2.2569 2.048 1.7263 2.2297-.7077 4.952.9801 4.952 3.0703 0 .7205-.9 1.5958-2 1.9449-2.9137.9248-2.4464 2.4964.75 2.5222l2.75.0223-2.5 1.9704c-2.1184 1.6696-2.271 2.1218-1 2.9624.825.5457 3.1153.999 5.0895 1.0074 2.8662.0122 3.819-.4885 4.7285-2.4847.8561-1.8787 1.9521-2.5283 4.4106-2.614 5.9281-.2066 8.578-.7346 11.644-2.3201 4.6562-2.4078 5.9231-1.9797 7.2502 2.4498.9637 3.2163 1.5703 3.8991 3.0478 3.4301 1.0146-.322 4.3706.571 7.4579 1.9844s6.1857 2.5698 6.8853 2.5698c1.7063 0 2.3907 2.0486 1.7698 5.2967-.8064 4.2186.2624 6.0166 2.7767 4.671 1.7893-.9576 1.9925-1.6954 1.4127-5.1274-.5709-3.3791-.3497-4.2384 1.4079-5.4694 1.1468-.8033 2.4589-2.9029 2.9157-4.6657 1.042-4.0215 3.1649-4.1058 5.1651-.2052.846 1.65 1.632 3.1688 1.7466 3.375.2915.5246 5.2794.4706 5.813-.0629.5952-.5953 4.38-118.1835 5.9806-185.8121.3189-13.475.826-26.1875 1.1269-28.25.5921-4.059 2.3615-5.1712 2.3865-1.5.0084 1.2375.4375 2.9176.9534 3.7336.745 1.1782 1.2417.7664 2.4125-2 .8109-1.916 2.4068-4.0499 3.5466-4.7421s2.0722-2.1546 2.0722-3.25c0-1.8533.6768-1.9907 9.75-1.9805 14.1102.0159 17.25.6793 17.25 3.6446 0 1.6496.7976 2.6971 2.5651 3.3692 3.5619 1.3542 11.1644 1.2218 12.0493-.2098.6889-1.1148 1.196-15.6727 2.9626-85.065.4026-15.81249 1.0562-28.74999 1.4525-28.74999 1.0147 0 2.3376 5.9197 2.1229 9.5l-.1799 3 1.536-2.7315c1.3716-2.4392 2.0735-2.7194 6.5591-2.6183 3.9733.0895 5.5385-.3709 7.4885-2.2029 1.8085-1.699 2.1332-2.5213 1.219-3.0863-.7271-.4494-1.5855-.1643-2.0604.6844-.4478.8-1.8267 1.4546-3.0644 1.4546s-2.7151.4648-3.2831 1.0328-1.7604.7535-2.6497.4123c-1.4505-.5566-1.5647-3.3142-1.1088-26.7828.6057-31.186.5926-31.8611-.6424-33.0961-1.605-1.605-1.1159-2.2864 2.1032-2.9302 2.3892-.4778 3.442-1.5007 4.75-4.6148 1.2504-2.9771 2.2563-4.0036 3.9305-4.0111 1.2375-.0056 2.2569.5523 2.2653 1.2398.0103.8402.2562.8983.75.1771 1.3943-2.0363 4.4271-2.4298 7.5759-.9828 1.7373.7983 4.6885 1.8293 6.5581 2.2911 4.1969 1.0365 6.3239 5.132 3.1029 5.9743-2.5565.6685-2.6086 2.2903-.0736 2.2903 3.5416 0 5.3582 2.9177 4.6255 7.4291-.3636 2.239-.6341 4.7459-.6009 5.5709s.0376 3.2119.0098 5.3043c-.0365 2.7542.5827 4.3624 2.2433 5.8262 1.2615 1.112 1.8222 1.7924 1.2459 1.5118-2.3919-1.1649-3.3947 1.3315-3.9731 9.8905-1.2463 18.443-.6742 23.9215 2.5869 24.7743 1.9277.5041 2.2426-.3438 3.2701-8.807.2003-1.65.4317 4.0582.5141 12.6849.0941 9.85009-.2773 16.73209-.9983 18.49999-1.6483 4.0417-3.4252 81.9194-1.9107 83.7442.6123.7378 6.1333 2.114 12.2746 3.0598s11.8077 1.9666 12.5969 2.2695c1.2309.4723 1.3819 9.3265 1.0612 62.2377-.3153 52.0133-.1528 61.9542 1.0363 63.3909.7756.9372 2.0762 1.4485 2.8902 1.1361.8206-.3149 2.057.256 2.7753 1.2815.7125 1.0172 6.677 4.2214 13.2545 7.1205 10.6256 4.6834 12.0223 5.5873 12.5262 8.1068.4664 2.3324 1.1507 2.8918 3.8554 3.1519l3.2882.3162.104 49.5c.0572 27.225.1697 50.0353.25 50.6896s1.8335 1.3293 3.896 1.5c3.4281.2838 3.7997.6108 4.3289 3.8104.9898 5.9845 1.8089 1.2836 2.3288-13.3666.2707-7.6266.6272-13.9918.7922-14.1447s4.1251-.5937 8.8001-.9794 10.975-.9955 14-1.3553l5.5-.654.5-13.0996c.3355-8.79.938-13.6263 1.8314-14.7006.8285-.9962 3.2837-1.714 6.5-1.9004 5.0272-.2912 5.1772-.3882 5.4817-3.5459.2459-2.5499 1.4993-4.2127 5.8417-7.75 3.0407-2.4769 5.8248-4.5281 6.1869-4.5581s2.6833-.2645 5.1583-.5211c5.8418-.6057 6.772-.5922 11.2638.1641 5.8164.9792 6.7362-.4073 6.7362-10.1541 0-7.465.2286-8.481 2.2225-9.8776 1.2224-.8562 3.9615-1.5567 6.0869-1.5567 3.3347 0 4.0125-.3925 4.9455-2.8644 1.5159-4.0161 4.4171-5.4911 10.33-5.2519 3.6094.146 5.4765-.2527 6.4014-1.3672 1.0757-1.2962 2.6458-1.4554 8.9098-.9035 4.1821.3685 8.7289 1.1083 10.1039 1.6441s4.3431 1.1456 6.5958 1.3552l4.0959.3811.6501-12.7467c.3575-7.0107.6519-20.9299.6541-30.9316s.4307-19.3071.9522-20.6786c.6376-1.6771 1.8526-2.5989 3.7104-2.8151 3.6752-.4276 4.12-2.3769 4.2418-18.5876l.0997-13.2662 3.25-1.4108c1.7875-.7759 4.059-1.6628 5.0478-1.9707 1.4626-.4556 1.6749-1.2149 1.1387-4.073-.4325-2.3053-.277-3.5131.4522-3.5131.6112 0 1.1113 1.1429 1.1113 2.5398 0 4.7459 3.8098 9.9384 16.4159 22.3739 6.9213 6.8276 12.5858 12.9026 12.5878 13.5.0037 1.0599 7.4115 4.5863 9.6344 4.5863.6143 0 1.6866-.6863 2.3828-1.5252 1.1297-1.3612 1.467-1.3432 3.1359.1671 1.0987.9943 5.0611 2.139 9.6066 2.7752l7.7366 1.0829-.3948 50.75-.3948 50.75 2.8948.106c1.5921.0582 4.1678.0206 5.7236-.0837s3.7191.6161 4.8072 1.6008c1.4529 1.3149 4.2873 1.9359 10.6712 2.3381 9.7887.6167 11.1928 1.1781 11.1928 4.4754 0 4.0724 1.7272 4.4724 19.3438 4.48 13.3052.0058 16.8568-.2758 17.2766-1.3698.2906-.7574.8858-4.4527 1.3226-8.2119l.7941-6.8349.1468 6c.1254 5.1293 1.7714 11.0017 2.2424 8 .2499-1.593.5179-4.7403.7027-8.25.2743-5.2126 2.171-3.7406 2.171 1.6849 0 7.5559 1.2516 9.9526 5.1398 9.8421 2.2756-.0647 3.6651.5496 4.6716 2.0654 1.146 1.726 2.4215 2.1576 6.3763 2.1576 8.6723 0 8.8123.2309 8.8123 14.5352 0 11.5272.1412 12.4648 1.8776 12.4648 1.0326 0 2.4501-.69 3.15-1.5333 1.1337-1.3659 1.5018-1.3239 3.3725.3851 1.1549 1.0551 3.0894 2.2181 4.2987 2.5844s2.4572 1.4801 2.773 2.4749c.4392 1.3839 2.0239 1.9603 6.7461 2.4539 3.3946.3548 6.535.2821 6.9786-.1615s1.2915-23.0584 1.8841-50.2551c.891-40.8848 1.3298-49.7082 2.5338-50.9484 1.2238-1.2605 6.3206-1.5285 31.9261-1.6787 16.7585-.0983 32.8717-.4788 35.8072-.8455 4.3382-.5421 6.3496-.2377 10.7448 1.626 2.9741 1.2611 5.74966 2.7666 6.16796 3.3455s.4597 22.3152.0919 48.3027c-.4562 32.2362-.3408 47.25.3631 47.25.6813 0 1.2808-14.3552 1.7645-42.25.4508-25.9993 1.1235-42.7308 1.7488-43.5.5588-.6875 2.7452-1.25 4.8585-1.25 4.4307 0 5.9127-1.8454 5.9127-7.3628 0-5.5859 1.865-6.6352 11.8214-6.6509 10.2961-.0162 12.9184-.5912 13.6831-3.0004.7379-2.325 9.1305-3.4225 23.4955-3.0725 18.5858.4528 19.4666.5556 19.8049 2.3121.592 3.0737 4.6885 4.5859 14.275 5.2694 5.1811.3695 10.2782.912 11.327 1.2056 1.8462.5169 1.8879 1.725 1.3093 37.8943-.3287 20.5482-.2541 37.5727.1657 37.8322.6749.4171 2.2346-18.3744 3.6046-43.427 1.5295-27.9694 3.4399-40.0342 6.778-42.8046.7305-.6062 7.9643-1.1414 17.2469-1.2759 8.7937-.1274 16.5511-.4346 17.2386-.6826.8271-.2983 1.25-2.67 1.25-7.0106 0-7.8252 1.1755-7.7038 1.3667.1412.0733 3.0071.5031 5.8421.9551 6.3s7.8753 1.5075 16.4961 2.3325l15.6742 1.5 1.3963 4c.7681 2.2 1.6698 8.9452 2.004 14.9894l.6076 10.9894 5.5.7524c3.025.4138 6.5474.9984 7.8275 1.2991l2.3275.5467-.2538 61.8967c-.2659 64.8716-.2543 65.0618 3.9712 65.0041.8952-.0123 2.7526-.8864 4.1276-1.9425l2.5-1.9202.6992-43.704c.3846-24.0372.9329-44.3131 1.2186-45.0575.3391-.8838 2.2234-1.3536 5.4284-1.3536 2.9581 0 5.3649-.5494 6.0563-1.3825.7417-.8937 1.26-7.792 1.4661-19.5103.1753-9.9704.6279-18.4371 1.0058-18.8149s.6398 7.9408.5822 18.4859.1801 19.634.5283 20.1974 2.83 1.0244 5.5151 1.0244 5.1885.496 5.5631 1.1021.6238 4.9937.5538 9.75c-.1535 10.4198.5558 12.0637 4.1807 9.6885 2.1639-1.4178 3.4098-1.5112 8.2416-.618 3.1308.5788 6.2028.7234 6.8266.3215 1.8369-1.1836 6.0157-1.0313 7.6342.2783.825.6675 4.0759 1.4643 7.2243 1.7707s6.1859.8424 6.75 1.191c.6557.4052 1.0257 9.4512 1.0257 25.0749v24.441h4.3776c2.4076 0 4.8141-.5625 5.3478-1.25 1.7558-2.262 5.2746-24.3765 5.2746-33.1495 0-8.5136.0253-8.6005 2.507-8.6005 2.5038 0 2.5062.0092 1.8723 7.25-.349 3.9875-1.0272 7.6775-1.507 8.2-1.7991 1.9593-.8948 6.6266 1.7196 8.8754 2.6957 2.3187 3.202 4.9787 1.9532 10.2609-.9203 3.8929 1.319 6.4137 5.6976 6.4137 1.7049 0 3.9552.7741 5.0006 1.7202 1.4438 1.3066 3.8707 1.7489 10.0952 1.8398 4.5069.0658 9.2347.6764 10.5061 1.3568s2.9639.9869 3.7611.681 2.2121.3344 3.1441 1.423c1.4911 1.7415 2.9591 1.9776 12.2224 1.9655 13.488-.0174 14.8377-.3953 15.5236-4.3465.2998-1.7269.8734-13.9298 1.2746-27.1177l.7296-23.9778 3-.921c1.64997-.5065 4.41797-1.5289 6.15107-2.2721s4.2931-1.3512 5.6888-1.3512c2.2456 0 2.6163-.5244 3.221-4.5569.4771-3.1815 1.3833-5.0156 3.0022-6.0764 1.2754-.8356 2.458-2.7047 2.6279-4.1535.3473-2.9597 2.652-3.9515 9.5591-4.1135l4.25-.0997.2154-25.25c.1185-13.8875.231-28.2623.25-31.944s.4846-7.1057 1.0346-7.609c.8854-.81 7.4077-2.1408 20-4.0808 3.7662-.5802 4.0292-.8454 4.5-4.538.275-2.157 1.0071-4.0886 1.6268-4.2923 1.6371-.5382 2.5325 2.548 1.3696 4.7208-.548 1.024-.9964 2.0639-.9964 2.3109 0 1.2809 6.8673 1.8598 30.8128 2.5974 14.8547.4576 26.7437 1.2415 27.3024 1.8002.6262.6262 1.0621 22.9747 1.1872 60.8698l.1976 59.8802 7.5932-.0654c4.1762-.036 8.2689-.3248 9.0948-.6417 1.1671-.4479 1.6565-3.316 2.1966-12.8736.3823-6.7636.9391-12.542 1.2375-12.841s4.586-.7914 9.528-1.0943c6.2702-.3843 9.2545-.9859 9.8755-1.9906.7603-1.2303 1.3369-1.1757 3.9623.3752 2.2848 1.3496 6.2057 1.9882 15.2923 2.4906l12.2198.6756.6072 13c.3339 7.15.6714 13.1477.75 13.3282s1.6053.2276 3.3928.1046c6.8011-.4678 14.75.1073 14.75 1.0672 0 .55-1.9125 1.0563-4.25 1.1252l-4.25.1251 4.5.8007c2.475.4404 6.3607.8341 8.635.8749 3.2307.0579 4.4839.6066 5.7306 2.5093 1.0415 1.5896 2.7309 2.5445 4.865 2.75l3.2694.3148.2711 19.75c.1652 12.031.6538 19.75 1.25 19.75.5384 0 .9789-1.3342.9789-2.9648 0-3.5452 2.259-5.0294 7.6843-5.0489 5.8155-.0208 8.0883-.9441 8.7428-3.5519.3281-1.3072 1.4912-2.8555 2.5847-3.4407 2.0486-1.0964 2.7655-3.9937.9882-3.9937-.55 0-1-.9-1-2s.6664-2 1.4809-2c1.5796 0 1.7791-.6491 3.5334-11.5 1.5844-9.7998 4.0068-22.7301 4.5745-24.4172 1.462-4.3456 3.6885 6.4915 8.8466 43.0592.5679 4.0264 1.0121 4.7104 3.349 5.1571 1.4819.2833 3.457.1069 4.3892-.392s3.2995-.9071 5.2607-.9071c3.0924 0 3.5657.317 3.5657 2.3887 0 1.9347.6601 2.5126 3.4728 3.0402 1.9101.3583 3.8602 1.3437 4.3336 2.1897.7181 1.2831 1.1483 1.0995 2.5941-1.1071 1.3624-2.0793 1.4788-2.952.544-4.0784-.9267-1.1166-.8863-1.8003.1831-3.0957s1.0969-1.7554.1224-2.0834c-.6875-.2313-1.25-1.2608-1.25-2.2876s-.7382-2.2801-1.6404-2.785-1.3211-1.4346-.9309-2.066 1.0755-.9218 1.5229-.6453 1.9383-.3822 3.3132-1.4637 3.6778-2.4143 5.1175-2.9617c1.6522-.6281 2.6177-1.7536 2.6177-3.0513 0-1.1309.5625-2.2612 1.25-2.5119 3.7559-1.3693 23.1961-3.2715 35.059-3.4305 2.095-.028 3.5656-.4448 3.2682-.9261-.6276-1.0155 2.222-9.8828 3.4123-10.6184.4413-.2727 2.0076.1294 3.4807.8937 3.1576 1.6381 10.2306 1.0308 12.6708-1.088 1.0927-.9488 3.6036-1.3541 7.5144-1.213 5.5492.2003 8.3163-.6425 12.3446-3.76.825-.6385 4.0812-1.0885 7.236-1 5.2596.1474 6.0902.5014 10 4.2609 4.246 4.0827 4.3044 4.1027 13.8311 4.7112 5.2619.3361 10.2751.8828 11.1404 1.2148 1.093.4194 1.7839 2.5688 2.2626 7.0389.7128 6.656 1.6865 7.8794 3.5299 4.435.5887-1.1.8701-2 .6254-2s.1734-2.5875.9292-5.75 1.4434-10.475 1.5281-16.25.4403-11.85.7904-13.5c.5716-2.6939 1.0696-3.0314 4.8817-3.3075 3.9939-.2893 4.2452-.4872 4.2452-3.3436 0-2.1951.554-3.181 2-3.5592 1.2561-.3284 2-1.364 2-2.7839 0-3.3016 2.326-4.7078 7.199-4.3523l4.301.3138.2954-6.7228c.2477-5.6352.6354-6.9047 2.3967-7.8473 2.7366-1.4646 4.1199.7228 4.8079 7.6028l.5 5 7.2769.6499c8.4806.7574 10.2231 1.8606 10.2231 6.4725 0 1.8577.45 3.3776 1 3.3776s1-.675 1-1.5c0-1.1111 1.1667-1.5 4.5-1.5 3.8333 0 4.5.2963 4.5 2 0 3.6481 6.0692 8 11.1568 8 1.9599 0 2.0154-.4893 1.6849-14.8485-.2388-10.3784-.7381-15.3255-1.6586-16.433-1.0984-1.3218-1.0486-1.9942.3005-4.0532 2.5503-3.8922 3.6193-18.8356 3.4455-48.1653l-.16-27 4.2436-9c2.334-4.95 6.0294-12.7767 8.212-17.3926 2.9989-6.3423 3.8207-9.1304 3.3642-11.4128-.3934-1.9669-.0989-3.5786.8442-4.6207 1.1103-1.2269 1.6036-6.2645 2.1137-21.5871.366-10.9927.9068-20.3851 1.2018-20.8719 1.3007-2.1462 3.1852 4.4762 3.2398 11.3851.0326 4.125.5061 9.3 1.0521 11.5s1.1546 7.7317 1.3523 12.2928.5904 8.5237.8727 8.806c.4636.4636 20.8548 2.4685 28.2345 2.7761l3 .1251.2635-7c.1449-3.85.6727-7.9 1.1727-9s1.178-6.386 1.5065-11.7467c.5607-9.1513 1.9318-14.7533 3.6108-14.7533 1.5531 0 1.8811 3.4588 1.4297 15.0747-.2804 7.2154-.023 13.7186.6423 16.2319.6106 2.3064 1.0531 5.5434.9832 7.1934s-.1593 4.35-.1986 6c-.0441 1.8471 3.2176 9.7254 8.4871 20.5l8.5587 17.5-.7998 25.5c-.485 15.4627-.4286 27.2713.1431 30 .5186 2.475 1.0282 20.025 1.1325 39 .2581 46.9829.1449 45 2.5683 45 2.136 0 2.7915-2.5695.8229-3.2257-.6473-.2158-.8412-.9356-.4309-1.5996 1.0131-1.6392 2.608-.4984 2.608 1.8653 0 2.2254 5.1266 4.0803 5.7885 2.0944.2416-.7247 1.7252-.0126 3.8375 1.8421 1.894 1.6629 4.3279 3.0235 5.4088 3.0235s1.9652.4102 1.9652.9115c0 1.3609 2.8209.6863 5.0261-1.2018 1.0665-.9132 2.6276-1.3961 3.4692-1.0731 1.8187.6979 4.4034-1.24 5.4996-4.1233.6173-1.6236 1.7611-2.1112 5.3153-2.2659 2.6671-.1161 6.3881-1.2352 9.0517-2.7223 2.4877-1.3888 5.6739-2.5251 7.0805-2.5251 2.1751 0 2.5576.4487 2.5576 3 0 1.65.45 3 1 3s1.0069-.5625 1.0153-1.25c.0106-.865.2416-.9111.75-.1497.4041.6052 1.7371 1.6281 2.9622 2.2731 1.8734.9864 2.1351.9321 1.6462-.3418-.777-2.0251 2.2319-3.1038 4.1703-1.4951 1.2492 1.0367 1.7612.9283 2.8869-.6111.7526-1.0293 1.2101-2.6934 1.0166-3.6981s.3016-2.0775 1.1003-2.384c1.1575-.4442 1.4685-3.1232 1.5327-13.2003.0442-6.9536.6067-14.6657 1.25-17.138 1.1237-4.319 1.3525-4.5282 5.8477-5.345 4.4282-.8047 4.7045-1.0454 5.1713-4.5051.2713-2.0102.5538-5.9049.6279-8.6549.159-5.9063 1.2544-7.4608 4.034-5.725 3.3646 2.1013 9.6007 1.522 12.2616-1.1389 2.2016-2.2016 2.7161-2.2919 7.4895-1.314 2.8191.5775 4.9284 1.3691 4.6873 1.7591-1.3322 2.1556 7.3436 2.5423 10.1091.4506 2.2373-1.6922 9.1406-1.9252 14.9411-.5042 7.0555 1.7284 23.6128 2.2553 27.7691.8836 2.8945-.9553 4.0676-.9745 4.9609-.0812 1.4417 1.4417 10.1547 1.6015 9.27.17-1.3896-2.2484 11.7316-.1017 14.148 2.3147.3769.3769 1.6453.6853 2.8187.6853 3.3045 0 4.5333 1.9698 4.5333 7.2674 0 4.4303.1816 4.8097 2.0225 4.2255 3.146-.9985 7.876.4489 9.1312 2.7943.7108 1.3281 1.0979 7.3923 1.0327 16.176-.0612 8.2371.3239 14.6691.9307 15.5441.7796 1.1242 1.1604 1.1841 1.5424.2427.6185-1.5243 4.2903-1.6115 6.3405-.1505 1.1303.8054.6373.9193-2 .4621-3.3754-.5853-3.4221-.5522-1.3112.9296 2.5771 1.8091 10.3112 2.7893 10.3112 1.3068 0-.5566.6681-.7556 1.4847-.4422.8764.3363 1.9213-.246 2.5502-1.421.586-1.095 1.4802-1.7345 1.987-1.4212 1.0185.6294 5.9781-2.2888 5.9781-3.5175 0-.4256-.5625-.753-1.25-.7275-3.4805.1293-5.75-.3714-5.75-1.2686 0-.55 1.0553-1 2.345-1s3.1673-.9086 4.1722-2.019c1.6917-1.8693 2.1325-4.1282 2.7872-14.2828.1348-2.0909.8168-4.1551 1.5157-4.587 1.5214-.9403 2.5177-10.9366 1.6752-16.8093-.4723-3.2919-.944-4.067-2.1852-3.5906-1.702.653-1.6968.6306 1.1155-4.8864 1.7683-3.469 1.7804-3.8711.2149-7.1702-.9122-1.9222-1.9358-4.881-2.2745-6.5749-.5846-2.923.0368-3.6256 2.8414-3.2124.389.0573.9739-1.3519 1.2996-3.1316.7701-4.2067 1.0324-50.8091.3981-70.7358-.2713-8.525-.1208-20.9864.3345-27.6921 1.0082-14.8505-.2902-36.1031-2.2809-37.3334-1.1489-.7101-1.1349-1.2767.0875-3.5611.7996-1.4941 1.3178-3.52 1.1516-4.5019-.5114-3.0215 3.3794-4.3022 14.5069-4.7753 2.8333-.1204 3.2808-.5418 3.8613-3.6362.7012-3.7379 1.1087-3.9162 8.1138-3.5502 4.0545.2119 4.2116.1035 5.2444-3.6157.5856-2.1087 1.0672-4.8139 1.0702-6.0115.0064-2.4785 4.3477-6.3226 7.1405-6.3226 1.5028 0 1.8651-.7611 1.8651-3.9182 0-5.4212.8305-7.0818 3.5419-7.0818 1.2803 0 3.4822-.4389 4.893-.9752 2.4274-.923 2.5657-1.3657 2.5761-8.25.0061-4.0012.2929-8.9807.6375-11.0656.5984-3.6214.6774-3.6884 1.7685-1.5.8547 1.7143 1.9973 2.2908 4.5406 2.2908 2.9209 0 3.5097-.416 4.1901-2.9598.5352-2.0014.3966-3.2106-.4281-3.7346-1.8769-1.1926-7.178-.9472-8.5196.3944-.9333.9333-1.2.1211-1.2-3.655 0-4.6401.0809-4.7817 1.8287-3.2 1.2054 1.0909 3.5915 1.655 7 1.655 4.8094 0 5.1818-.175 5.3213-2.5.0825-1.375.195-3.0625.25-3.75.0718-.8978-2.0133-1.25-7.4-1.25h-7.5l-.3134-3.25c-.2992-3.1034 1.0031-4.3701 2.3134-2.25.8955 1.4489 8.2018 1.2395 8.7253-.25.2416-.6875.1551-2.375-.1921-3.75-.5631-2.2292-1.1676-2.5089-5.5823-2.5825l-4.9509-.0825-.3061-5.8758c-.5367-10.3021-.4047-10.4592 8.79-10.4592 7.0003 0 8.077.2452 9.0486 2.0607 1.5097 2.821 5.1806 2.1802 6.0768-1.0607.3802-1.375.7431-8.35.8063-15.5.1152-13.02479.948-17.03639 3.0917-14.89269.6725.6725 1.1676 6.9128 1.2916 16.27889.2148 16.2229.4832 17.0647 5.4511 17.0985 1.5356.0104 2.25.6164 2.25 1.9083 0 1.9816-1.8407 3.107-5.0818 3.107-1.9419 0-2.3207.8807-1.9358 4.5.3287 3.0898 2.0943 4.6293 4.9316 4.3001 2.0071-.2329 2.586.1405 2.586 1.6683 0 1.5172-.9741 2.161-4.25 2.8088-3.5156.6953-4.25 1.2356-4.25 3.1267 0 3.4587 3.3008 6.0407 5.9263 4.6356 1.8245-.9765 2.2231-.7767 3.1113 1.5593.5602 1.4736 2.131 4.0013 3.4905 5.617 3.2087 3.8133 3.1266 5.576-.2781 5.9678-3.5335.4066-4.2591 4.1083-1.4042 7.1643 1.3363 1.4305 2.2469 4.2599 2.7156 8.4382.4796 4.2758 1.2307 6.5675 2.3487 7.1658.9039.4838 5.2182 1.3768 9.5873 1.9845s8.4071 1.5693 8.9732 2.137c.5773.5789.9332 4.6322.8103 9.2294-.3167 11.8491-.1214 12.3441 5.186 13.14 4.8713.7305 5.5364 1.3383 6.4724 5.9147.616 3.0121.6662 3.0329 7.5904 3.1495 3.8337.0646 7.7363.4668 8.6724.8938s2.2588.4324 2.9392.0119c1.9233-1.1887 24.1522-1.414 25.5439-.259.6703.5563 2.11.7287 3.1993.383 2.7772-.8815 36.2021-1.2056 36.7271-.3562.2367.3831 1.4335.4361 2.6594.1177s3.6232-.672 5.3273-.7858 3.6205-.5296 4.2589-.9241 1.9442-.484 2.9017-.1988c3.433 1.0226 15.926.8763 26.0758-.3054 8.9789-1.0453 10.6418-1.0019 12.6753.3305 1.2873.8435 2.4867 1.132 2.6653.641s5.4997-1.2064 11.8247-1.5899 11.7693-.8546 12.0985-1.0469 5.3678-.8015 11.1969-1.3538c7.1827-.6806 11.8193-1.6586 14.3867-3.0346 2.0836-1.1167 4.4345-2.0304 5.2244-2.0304s2.2306-.7191 3.2017-1.598 2.2441-1.3023 2.8288-.9409c.7484.4625 1.063 151.4169 1.063 510.0979v509.441h-1296.00007-1295.99996v-401.8333zm1543.88323-350.4044c.1466-5.0808.6041-9.6933 1.0167-10.25s.8172-3.1046.8991-5.6619c.1336-4.1701-.0546-4.5963-1.825-4.1333-1.0857.2839-2.0007 1.2512-2.0334 2.1495-.7918 21.7595-.7054 27.1334.4366 27.1334.8774 0 1.3174-2.699 1.506-9.2377zm477.1168-14.7623c0-.55-.675-1-1.5-1s-1.5.45-1.5 1 .675 1 1.5 1 1.5-.45 1.5-1zm31.141-2c2.8359 0 4.3937-1.3258 3.4162-2.9075-.3178-.5141-2.715-.2186-5.5306.6818-3.997 1.2782-4.7487 1.8556-3.8406 2.9499.7834.9439 1.4484 1.0414 2.1716.3182.5733-.5733 2.2758-1.0424 3.7834-1.0424zm-1893.14103-13.5c0-.825-.7301-1.5-1.6224-1.5-1.3288 0-1.3972.2715-.3776 1.5 1.5675 1.8887 2 1.8887 2 0zm-139.75-2.9167c.1375-.5041-.3125-1.1041-1-1.3333s-1.25.3333-1.25 1.25c0 1.6934 1.7928 1.7598 2.25.0833zm133.75-2.5833c0-.55-.45-1-1-1s-1 .45-1 1 .45 1 1 1 1-.45 1-1zm-10.5-12.5c0-.55-1.6875-1.1397-3.75-1.3104-3.5167-.291-4.6791.5479-3.0359 2.1911 1.0414 1.0414 6.7859.2959 6.7859-.8807zm16.1063-2.3244c.1052-2.0934-.3052-3.1756-1.2043-3.1756-1.5592 0-2.9344 4.3295-1.9045 5.996 1.2283 1.9874 2.9453.4296 3.1088-2.8204zm-9.6169 1.3371c.6789-.818.9496-2.2292.6016-3.1361-.5794-1.5099-.7995-1.4979-2.6119.1423-1.0885.9851-1.9791 2.3963-1.9791 3.1361 0 1.7992 2.4507 1.7118 3.9894-.1423zm15.0106-1.5717c0-.5176-.675-.941-1.5-.941-1.5464 0-1.9867 1.18-.8605 2.3061.7989.799 2.3605-.1041 2.3605-1.3651zm-23.2684-6.941c.336 0 1.4357.7464 2.4437 1.6587 2.5695 2.3254 6.8247.4061 6.8247-3.0782 0-3.1848-1.395-3.9836-4.2293-2.4218-1.2489.6881-3.0582 1.1306-4.0207.9833s-1.75.1793-1.75.7256-.9609 1.1371-2.1354 1.3128-2.8037 1.331-3.6204 2.5672c-1.4123 2.1376-1.3199 2.3175 1.8854 3.6723l3.3704 1.4246.3104-3.4223c.1707-1.8822.5852-3.4222.9212-3.4222zm146.2684 5.059c0-.5175-.45-1.2191-1-1.559s-1 .0835-1 .941.45 1.559 1 1.559 1-.4234 1-.941zm0-7.059c0-1.1-.45-2-1-2s-1 .9-1 2 .45 2 1 2 1-.9 1-2zm-129.75-.5137c-.3684-1.4534-2.5123-1.1994-3.0318.3592-.2921.8762.202 1.2202 1.4166.9863 1.0259-.1976 1.7527-.803 1.6152-1.3455zm130.1722-9.0323c.707-2.8169-.0499-4.8021-1.4913-3.9113-1.1899.7354-1.2247 6.4573-.0393 6.4573.4904 0 1.1791-1.1457 1.5306-2.546zm2124.57783-40.454c0-.55-.675-1-1.5-1s-1.5.45-1.5 1 .675 1 1.5 1 1.5-.45 1.5-1zm-8.8333-3.8954c.1833-.4924 5.2833-1.1542 11.3333-1.4705s14.15-1.2731 18-2.1261 11.95-1.7244 18-1.9364 11.6988-.6664 12.5529-1.0099 2.3411-1.9587 3.3044-3.5895c1.5711-2.6596 1.7923-7.1025 2.1471-43.1286.3104-31.5258.6751-40.341 1.6955-40.9883 1.359-.862 4.2953-1.0491 19.4622-1.24 5.0391-.0634 9.5206-.4718 9.9588-.9075s.6916-4.7218.563-9.5247c-.1578-5.8938.1807-9.2492 1.0412-10.3215.8689-1.083 4.4222-1.9583 11.1586-2.7489 5.436-.638 10.2313-1.3747 10.6561-1.6373 1.503-.9289-.2455-4.2482-2.8746-5.4569-1.5465-.711-6.5476-1.1899-11.9152-1.141-7.5404.0687-9.25-.1894-9.25-1.3966 0-1.9437-.6456-1.8694-3.9008.4485-1.757 1.2511-3.2008 1.6258-4.1067 1.066-.7683-.4749-1.796-.6168-2.2838-.3154-.7848.4851-5.3186.4945-26.7087.0556-3.025-.0621-7.075-.0457-9 .0363s-5.75.1502-8.5.1516-7.925.0803-11.5.1755-8.525.1047-11 .0214c-6.1896-.2084-21.4257.5681-27.6126 1.4073l-5.1126.6935-.6374 7.5403c-.8169 9.664-.8372 109.9893-.0231 114.0599.5303 2.6515 1.1114 3.1242 4.25 3.4569 7.1365.7566 9.9738.7088 10.3024-.1737zm-79.3385-186.4764c.425-3.7194-.984-5.1504-3.6607-3.7178-1.7578.9407-2.3233 3.9896-1.2815 6.9092.0627.1757 1.1265.1757 2.364 0 1.6386-.2328 2.3392-1.1 2.5782-3.1914zm4.1718-11.5692c0-1.6175-.45-3.2191-1-3.559-.5951-.3678-1 .823-1 2.941 0 1.9574.45 3.559 1 3.559s1-1.3234 1-2.941zm7.1713-2.714c2.4937-2.2568 2.3-4.9885-.4041-5.6956-2.9516-.7719-3.6574.1781-3.0464 4.1006.5791 3.7178.927 3.8787 3.4505 1.595zm11.8287-3.952c0-.7661-.9-1.393-2-1.393-1.8826 0-2.7191 1.9475-1.4022 3.2644.9731.9732 3.4022-.363 3.4022-1.8714zm-10.2-9.593c.66-.66 1.2-2.235 1.2-3.5 0-2.2768-.2009-2.366-6.1967-2.7511-.9332-.0599-2.0207-.433-2.4167-.8289-1.2626-1.2627-3.3866-.7735-3.3866.78 0 .8411.8924 1.5 2.0314 1.5 1.8377 0 2.3038.6266 3.5331 4.75.4741 1.59 3.665 1.6205 5.2355.05zm-1.02-12.05c.9994-1.219 1.5671-3.9824 1.3352-6.5-.0642-.6966-1.4433-1.25-3.1152-1.25-2.8116 0-3 .2407-3 3.8333 0 2.1084.3 4.1334.6667 4.5 1.0544 1.0545 2.9962.7791 4.1133-.5833zm-6.78-7.3388c0-5.4039-1.6804-6.1858-10.25-4.7693-3.1202.5157-3.75 1.0231-3.75 3.0212 0 2.9623 2.7473 4.171 9.25 4.0697 4.2358-.0659 4.75-.3172 4.75-2.3216zm-1866.00003-25.91119c0-.7601-.45-1.6601-1-2-.5694-.3519-1 .5093-1 2s.4306 2.35189 1 1.99999c.55-.33989 1-1.23989 1-1.99999zm10-3.618c0-.55-.45-.7219-1-.382s-1 1.068-1 1.618.45.7219 1 .382 1-1.068 1-1.618zm3.3098-15.3178c1.1438-.8672 1.4198-1.6133.75-2.0272-1.6107-.9955-1.2671-3.6649.6524-5.0685 1.4596-1.0673 1.5122-1.4932.3567-2.8855-1.2507-1.507-1.5064-1.497-3.3026.1285-1.8601 1.6833-2.0056 1.6818-3.2606-.0346-.8888-1.2155-1.5381-1.4334-2.0077-.6737-.3816.6175.1045 2.0051 1.0804 3.0834 1.3602 1.5031 1.4998 2.2352.598 3.137-1.5571 1.5571-1.485 2.325.395 4.205 1.8933 1.8932 2.4011 1.9078 4.7384.1356zm6.6902-1.0642c0-.825-.675-1.5-1.5-1.5s-1.5.675-1.5 1.5.675 1.5 1.5 1.5 1.5-.675 1.5-1.5zm10.5-7.5c-.8024-1.2984-3.5-1.2984-3.5 0 0 .55.9266 1 2.059 1s1.7809-.45 1.441-1zm-13.9411-5.0954c1.1854-1.9179-1.7091-5.9046-4.2869-5.9046-1.3387 0-2.1182.4399-1.772 1 .3399.55.1415 1-.441 1-1.6784 0-.7547 2.3812 1.441 3.7146 2.5199 1.5303 4.1918 1.5931 5.0589.19zm-.8862-8.1322c4.6515.5243 6.3148-.4746 6.2816-3.7724-.0118-1.1742-.2365-1.1199-1.0344.25-1.2902 2.2151-3.5118 2.2559-4.3468.08-.7981-2.08 1.2137-3.4217 4.0595-2.7075 1.1821.2967 2.4202.101 2.7514-.4349s-.6322-1.2824-2.1409-1.6589-3.5342-1.3976-4.5012-2.269c-1.6414-1.4792-1.6477-1.7064-.095-3.4221 1.3154-1.4535 1.3694-1.8349.2581-1.8241-3.1325.0305-5.8547 1.2603-5.2018 2.3501.3744.625-.0915.5097-1.0354-.2562-2.3793-1.9306-2.8498-1.0979-3.3485 5.927-.4374 6.1612.9636 10.0827 2.9077 8.1386.5014-.5014 2.952-.6817 5.4457-.4006zm8.8273-13.7725c-.7919-1.2814-1.5-1.2814-1.5 0 0 .55.4766 1 1.059 1s.7809-.45.441-1zm5.0411-5.0665c.9204-1.4892-.1467-2.2988-2.0614-1.5641-.8835.3391-1.3264 1.0697-.9841 1.6235.8106 1.3116 2.2151 1.2842 3.0455-.0594zm-18.7793-6.9434c-.7025-1.1247-1.4204-1.5142-1.6304-.8843-.2063.619.2422 1.5166.9967 1.9945 1.9693 1.2475 2.0346 1.1331.6337-1.1102zm5.2382-3.5477c0-2.1504-2.019-2.7702-4.5723-1.4037-2.149 1.1501-2.2206 1.3922-.7336 2.4796 1.9806 1.4482 5.3059.7739 5.3059-1.0759zm6 .5576c1.213-.7839 1.0694-.9723-.75-.9847-1.2375-.0084-2.25.4347-2.25.9847 0 1.2529 1.0612 1.2529 3 0zm1544.00003 421.45589c0-1.534.3375-2.3819.75-1.8841s1.1088 1.175 1.5473 1.5049.1011 1.1778-.75 1.8841c-1.3335 1.1068-1.5473.8988-1.5473-1.5049zm213-18.5148c0-.5825-.45-.7809-1-.441s-1 .1896-1-.334.675-1.211 1.5-1.5276c1.0203-.3915 1.5.0539 1.5 1.393 0 1.0827-.225 1.9686-.5 1.9686s-.5-.4766-.5-1.059zm-1320.00143-3.191c-.0007-.1375-.6691-4.0442-1.4852-8.6815-1.4949-8.495-1.4483-9.7643.3189-8.6721 1.2694.7845 4.4811 15.2875 3.6745 16.5927-.5397.8731-2.5043 1.4692-2.5082.7609zm1306.55423-9.6646c-.322-.521-.1592-1.2106.3618-1.5326s1.2106-.1592 1.5326.3618.1592 1.2106-.3618 1.5326-1.2106.1592-1.5326-.3618zm.045-5.821c-1.0902-1.0902-.6215-2.1813 1.4022-3.2644 1.6786-.8984 2-.7605 2 .8578 0 1.9273-2.2735 3.5354-3.4022 2.4066zm-2137.59783-9.8234c0-.8575.45-1.2809 1-.941 1.2939.7997 1.2939 2.5 0 2.5-.55 0-1-.7016-1-1.559zm22-1.382c0-.5175.45-1.2191 1-1.559s1 .0835 1 .941-.45 1.559-1 1.559-1-.4234-1-.941zm-4.9682-5.2738c.031-1.2546 2.9682-5.765 2.9682-4.5581 0 .3351.2599 1.2866.5776 2.1144.3495.9108-.2428 1.9442-1.5 2.617-1.6036.8582-2.0703.8186-2.0458-.1733zm-10-6.1221c-.0197-1.1383 1.1091-2.2675 2.9682-2.9692 1.65-.6228 3-1.4837 3-1.9131s.675-.7808 1.5-.7808c2.3379 0 1.7617 2.6824-.75 3.4915-1.2375.3987-2.6381.6593-3.1124.5792s-1.4725.6587-2.2182 1.6418c-1.2978 1.7111-1.3572 1.709-1.3876-.0494zm35.9682-6.477c0-.5241 1.1428-1.1714 2.5396-1.4384 1.6028-.3064 2.4039-.0727 2.1717.6334-.4565 1.388-4.7113 2.115-4.7113.805zm-35-2.6271c0-.7925.4028-1.6899.8952-1.9942 1.0294-.6363 2.2707 1.936 1.3692 2.8374-1.073 1.0731-2.2644.6294-2.2644-.8432zm9-.1323c0-.9313.6804-1.4414 1.6671-1.25 2.5088.4865 2.8533 2.8233.4162 2.8233-1.2283 0-2.0833-.6457-2.0833-1.5733zm52.9188-7.6767c-.0447-.1375-.1721-1.4875-.2831-3-.2591-3.5321 2.5825-3.7612 4.144-.3341.8866 1.9458.8046 2.5296-.4212 3-1.5739.604-3.2976.7714-3.4397.3341zm1098.33336-29.25c-.0111-2.2.1846-3.2177.4349-2.2617s.2594 2.7561.0202 4-.444.4617-.4551-1.7383zm-384.87576-6.4609c.3651-4.3785.9193-18.666 1.2315-31.75.622-26.0685 2.369-34.5002 2.5404-12.2613.1284 16.6616.0987 21.0481-.2049 30.2222-.1319 3.9875.0872 9.8613.4869 13.0529.7617 6.0811-.1998 8.6971-3.1965 8.6971-1.29 0-1.4204-1.2107-.8574-7.9609zm-696.2975-55.4558c-.0434-1.0541.193-1.6448.5253-1.3125s.3678 1.1948.0789 1.9167c-.3192.7977-.5562.5608-.6042-.6042zm558.9211-56.6423c0-1.7847.4166-2.8016 1-2.441 1.302.8047 1.302 5.5 0 5.5-.55 0-1-1.3766-1-3.059zm-279-153.10769c0-2.8416.1651-4.9791.3669-4.75.8513.9666 1.3118 9.9167.5103 9.9167-.4825 0-.8772-2.325-.8772-5.1667zm-.2708-7.4375c-.4011-.401-.6766-3.2416-.6123-6.3125l.1169-5.5833.9025 5.4419c.9445 5.6954.8193 7.6804-.4071 6.4539zm49.4287-3.3958c0-1.375.227-1.9375.5044-1.25s.2774 1.8125 0 2.5-.5044.125-.5044-1.25zm-.1579-5.441c0-1.7565.6001-2.0151 1.4573-.6281.3164.512.118 1.2136-.441 1.559s-1.0163-.0734-1.0163-.9309zm-51.1291-13.3091c-.071-2.0625-.2561-5.6625-.4113-8s.1279-4.25.6291-4.25.9174 2.5875.9249 5.75.285 6.7625.6167 8c.3618 1.35.1563 2.25-.5137 2.25-.6141 0-1.1747-1.6875-1.2457-3.75zm4.1444-19.941c.0111-3.4736.2845-4.3925.9847-3.309 1.2716 1.9677 1.2716 6.7141 0 7.5-.6144.3797-.9941-1.2362-.9847-4.191zm43.0636 1.2743c-.0434-1.0541.193-1.6448.5253-1.3125s.3678 1.1948.0789 1.9167c-.3192.7977-.5562.5608-.6042-.6042zm1065.92113-323.08317c0-2.79174 2.4225-3.44732 3.393-.91821 1.0142 2.64298.6983 3.41821-1.393 3.41821-1.4667 0-2-.66667-2-2.5z" fill="#2b1100"/></svg>