<svg height="864" viewBox="0 0 1184 864" width="1184" xmlns="http://www.w3.org/2000/svg"><path d="m0 0h1184v864h-1184z" fill="#efe7d6"/><path d="m0 0h380v340h-380z" fill="#21409a"/><circle cx="952" cy="182" fill="#f2b71e" r="146"/><path d="m0 604h616v260h-616z" fill="#d9372a"/><g fill="#141414"><path d="m1184 864h-568l568-460z"/><path d="m372 0h36v864h-36z"/><path d="m0 300h1184v260h-1184z"/></g><circle cx="1052" cy="706" fill="#d9372a" r="56"/><circle cx="132" cy="720" fill="#21409a" r="52"/><path d="m437 700h-422v-700h438l-169 592-10-1c0-139-68-157-89-158v247h7c89 0 183-57 234-238h10zm-252-288c224-61 255-330 0-392zm712-209c-1 218-353 264-353 415 0 35 24 60 60 60 46 0 103-44 103-152 0-22-4-44-11-64 216-10 214 248-18 248-107 0-206-46-206-172 0-249 357-291 357-447 0-26-17-39-41-39-86 0-211 149-234 287-187-116-97-349 133-350 107 0 210 87 210 214zm169-203h170v680c55-54 148-144 148-284h10v304h-485l-1-304h10c0 140 93 230 148 284zm349 700v-700h170v413h117v-413h170v700h-170v-267h-117v267zm910 0h-422v-700h438l-169 592-10-1c0-139-68-157-89-158v247h7c89 0 183-57 234-238h10zm-252-288c224-61 255-330 0-392zm712-209c-1 218-353 264-353 415 0 35 24 60 60 60 46 0 103-44 103-152 0-22-4-44-11-64 216-10 214 248-18 248-107 0-206-46-206-172 0-249 357-291 357-447 0-26-17-39-41-39-86 0-211 149-234 287-187-116-97-349 133-350 107 0 210 87 210 214zm20 497v-700h170v700zm635-497c-1 218-353 264-353 415 0 35 24 60 60 60 46 0 103-44 103-152 0-22-4-44-11-64 216-10 214 248-18 248-107 0-206-46-206-172 0-249 357-291 357-447 0-26-17-39-41-39-86 0-211 149-234 287-187-116-97-349 133-350 107 0 210 87 210 214z" fill="#ff8081" transform="matrix(.26 0 0 -.26 144.15 520.87)"/></svg>