<svg enable-background="new -46.032 -45.883 2322.065 1027.449" viewBox="-46.032 -45.883 2322.1 1027.4" xmlns="http://www.w3.org/2000/svg"><path d="m1347.1 0h.54c1.63 12.91.67 26.01 1.48 38.99 2.31 81.33 4.34 162.67 6.55 244 .63 19.02.68 38.06 1.78 57.06.82-8.98 3.1-18.01 7.93-25.7 3.11-4.96 7.71-9.33 13.51-10.81 3.55-1.02 7.28-.32 10.84.35-.15-33.65.02-67.3-.09-100.95-.16-5.25 3.11-9.68 4.75-14.49.6-.16 1.81-.48 2.41-.65.29-2.86.26-5.83 1.25-8.57 1.03-2 2.54-3.68 3.93-5.44 1.07-.09 2.17-.17 3.28-.24.58-2.87 1.75-5.56 3.62-7.82 3.09.01 6.2-.03 9.32-.11 1.72 2.36 2.74 5.1 3.16 8 1.09.09 2.19.18 3.31.27 1.68 2.52 4.3 4.78 4.37 8.04.21 1.95.32 3.91.46 5.87 1.07.18 2.16.37 3.27.55 1.33 4.53 3.87 8.79 4.12 13.58.01 54.77-.02 109.55.01 164.32 5.37-.05 10.75.13 16.12-.02 3.69.1 6.52-2.58 9.48-4.38 2.14 4.4 1.04 9.42 1.31 14.13.3 8.23-.24 16.46.05 24.69 14.93-13.33 29.6-26.95 44.13-40.71 1.06-1.11 2.48-2.21 2.28-3.94.09-9.04.01-18.08 0-27.12-3.23 1.23-6.61 3.11-10.16 2.33-1.85-.41-2.81-2.4-2.64-4.14.26-4.33 2.73-8.04 4.76-11.72-1.71-.81-4.32-1.1-4.63-3.4-.6-4.91 2.47-9.21 4.72-13.3-2.35-.55-5.25-1.64-4.86-4.62.62-6.5 4.81-11.94 8.69-16.93 1.54-2.23 4.34-4.09 4.15-7.09.04-7.93-.04-15.87 0-23.8 7.81-.06 15.61-.05 23.42-.01 0 2.41 0 4.83.01 7.25 2.67-.78 5.43-2.03 8.3-1.53 1.79.36 3.06 2.2 2.93 4.01-.21 4.45-2.78 8.31-4.95 12.05 2.08.57 4.9 1.22 4.94 3.94.05 4.71-2.68 8.8-5.01 12.68 1.73.81 5.08.65 5.05 3.27.35 6.16-4.29 10.99-5.56 16.8-.57.1-1.73.29-2.31.39-1.29 1.78-3.54 3.33-3.31 5.78.02 7.51-.22 15.02.02 22.53 20.59-22.21 38.98-47.09 50.58-75.24 8.15-.25 16.31-.09 24.48-.09-16.03 34.51-32.52 68.78-48.66 103.24-8.86 18.98-17.61 38.02-25.49 57.43-1.51 3.54-.96 7.46-1.02 11.21.17 44.35-.07 88.71.01 133.06.15 4.86 2.46 9.27 3.7 13.89 2.63 9.47 6.52 18.53 9.08 28.02 10.49.47 21 .07 31.51.22 1.73 36.62 3.33 73.25 5.02 109.87.41 7.73.41 15.51 1.45 23.21 4.23-52.03 9.2-104 13.7-156 1.27-10.34.86-20.76.88-31.15.01-15.27-.07-30.53.05-45.79 7.27-2.15 14.02-7.14 21.9-6.36 8.71.26 17.41.7 26.13.84-.01-31.44-.07-62.89.04-94.33 3.67.01 7.35.02 11.05.04 1.08-5.85 1.82-11.76 3.26-17.53 2.79 5.36 2.46 11.74 4.03 17.51 6.62.06 13.25-.15 19.89.14-.12 5.11-.06 10.22-.11 15.33 1.19.05 2.4.1 3.64.16.33-17.78.9-35.54 1.22-53.31 6.76 5.32 13.13 11.12 19.84 16.51.13-21.33-.12-42.67.12-64.01 9.67-5.21 20.42-8.24 31.44-8.34-.11-4.99-.09-9.97-.06-14.96 3.61-.01 7.22-.01 10.85 0 .02 5.57.01 11.15 0 16.73 6.19 1.54 12.09 3.99 17.93 6.52.16 4.18.14 8.37.12 12.56-6.04-.22-12.07-.58-18.1-.71 0 1.24.02 2.49.07 3.75 6.01.26 12.04.45 18.06.85-.04 1.53-.06 3.07-.05 4.61-6.01-.23-12-.42-17.99-.76 0 .95-.02 2.85-.02 3.8 5.98.3 11.98.56 17.98.78.01 1.56.05 3.13.1 4.7-6.05-.19-12.08-.56-18.12-.72-.02 1.24-.02 2.48-.01 3.73 6.03.33 12.08.45 18.12.93-.08 13.41-.02 26.82-.04 40.23-.07 9.02.27 18.05-.48 27.05 28.27-.03 56.54.14 84.8-.09-.1-10.91-.09-21.83-.01-32.74 5.47-1.75 7.18-7.7 8.76-12.58 3.62-12.9 5.24-26.27 6.5-39.58 2.97-26.24 3.92-52.66 6.61-78.93.87-5.73.89-11.87 3.63-17.11 1.45-2.11 3.44.4 3.84 2.04 2.43 7.44 3.02 15.32 4.01 23.04 2.75 25.31 4.64 50.69 7.56 75.98 1.49 11.84 2.99 23.74 6.16 35.27 1.38 4.5 2.72 9.85 7.44 11.98.1 10.89.07 21.77.02 32.66 35.29.17 70.58.04 105.87.06.02-23.4-.01-46.81.01-70.21 1.41-.07 2.86-.13 4.33-.19 1.3-2.05 2.63-4.07 4.03-6.06l-1.08-.72c4.72-3.36 6.53-9.39 10.22-13.76-.34-.1-1.03-.29-1.37-.39 2.54-.49 3.65-2.77 4.54-4.95 1.74-2.15 3.44-4.33 5.18-6.5 1.89 2.46 3.68 4.99 5.4 7.58-.46.64-.89 1.28-1.29 1.93.38-.44 1.15-1.33 1.54-1.78 4.82 7.21 9.76 14.35 14.83 21.38-1.3 1.08-2.51 2.21-3.68 3.39 1.95.18 3.83-.38 5.2-1.86.23 2.26 2.66 1.6 4.15 2.15.06 161.26-.01 322.52.04 483.79 6.81-.03 13.63.01 20.46-.04-.02-65.24-.04-130.47.01-195.71h9.45c-.01-2.8-.01-5.6.01-8.38 2.53-.02 5.08-.02 7.65.01 2.85-2.58 5.64-5.24 8.45-7.89-2.16-3.61-4.63-7.51-4.15-11.9.19-2.54 2.29-4.89 4.92-4.93 4.52-.24 8.14 2.94 11.36 5.68 1.69-1.79 3.48-3.57 5.75-4.66-1.39 1.91-3.08 3.57-4.55 5.39.93 3.27 3.67 5.96 4.1 9.5.83 3.11-.41 7.24-3.9 7.99-4.76.82-8.82-2.61-12.11-5.56.03 2.1.04 4.21.08 6.32 5.42.04 10.85.03 16.28.04-.01 2.79-.01 5.58.02 8.38 27.86.08 55.73-.11 83.6.1-.18 47.8.09 95.6-.14 143.41 4.85.21 9.7.12 14.57.13.04 56.77-.01 113.54.03 170.31h-2229v-199.6c5.66-.64 11.36-.22 17.03-.32 19.48-.1 38.96.17 58.44-.14 2.96-13.43 6.19-26.8 9.26-40.2 1.06-4.88 2.7-9.71 2.62-14.76-.07-15.04.02-30.07-.05-45.1 11.09-.29 22.18-.17 33.27-.33 9.13-9.67 18.1-19.51 27.4-29.02-.38 43.2-.19 86.4-.22 129.6 1.95-.08 3.91-.15 5.87-.22-.16-35.96-.03-71.92-.07-107.88.12-51.12-.23-102.25.18-153.36 2.52 4.28 3.99 9.35 7.96 12.63 4.25 4.2 11.36 5.18 16.38 1.76 5.74-3.56 8.26-10.14 10.43-16.2-.04 23.55.06 47.1-.05 70.66 3.73.1 7.46.12 11.19.09.03-1.94.02-3.88.05-5.81 2.7-.01 5.41 0 8.11.01.08 1.94.16 3.9.26 5.85 3.2-.05 6.4-.06 9.6-.06.01-5.26-.01-10.53.02-15.79 2.33-.02 4.65-.02 6.98-.03 0-1.66.01-3.32.02-4.97 2.14-.01 4.29-.02 6.44-.01.02 1.65.04 3.32.06 4.99 2.23.01 4.46.01 6.7.03.02 5.29-.11 10.59.16 15.88 1.87-.05 3.74-.09 5.61-.12.01-2.93.02-5.85.03-8.77 8.39-.01 16.78-.04 25.17.01.01 2.94.05 5.88.16 8.83 4.13-.04 8.25-.05 12.38-.06 2.24-125.18 4.69-250.33 6.93-375.5.33.02.98.06 1.3.09-.16 71.92 0 143.85-.08 215.77-.07 3.16-.13 6.35.56 9.46-.14.39-.43 1.16-.57 1.55.03 49.51.1 99.02-.04 148.53 8.1.27 16.2.04 24.3.14.09-51.53-.04-103.06.09-154.58.36-4.12 1.61-8.11 3.04-11.97.93-2.57 2.93-5.34 6-5.13 8.53-.13 17.07-.16 25.61-.08.04-1.52.09-3.02.13-4.53 5.59-.13 11.19-.11 16.78-.02-.08 1.29-.16 2.59-.23 3.89 2.14.85 4.68 1.62 5.62 3.99 2.91 6.5 3.63 13.77 3.36 20.83-.01 49.2-.05 98.4.02 147.6 13.57-.03 27.15-.06 40.72.02.14-32.01.02-64.01.06-96.01 8.27-.37 16.74.97 24.82-1.35-.37-.71-1.13-2.11-1.5-2.82 5.57-33.04 11.34-66.05 16.85-99.09.72-.17 2.14-.51 2.85-.67-.69-.01-2.07-.02-2.76-.03.73-3.6 1.52-7.21 1.58-10.9.77.41 1.54.84 2.31 1.29-.34-1.07-.87-2.03-1.59-2.88.28-1.85.63-3.7 1.04-5.52.25 1.2.75 3.61 1 4.82-.12-4.2-1.48-8.42.32-12.52 2.47 4.38 2.2 9.62 3.54 14.36-.33.42-.98 1.25-1.3 1.67l1.84.56c.11 1.05.35 3.15.47 4.21-.69-.35-2.05-1.04-2.74-1.39 2.82 1.16 3.81 3.81 3.4 6.73.58 1.96 1.09 3.94 1.59 5.94-1.53.25-3.22.29-4.29 1.58.69-.18 2.06-.53 2.75-.71.01 1.53-.14 3.14.58 4.57.04-1.65.03-3.3-.04-4.94l1.13-.16c.63 2.92.56 5.9-.69 8.64.4-.8 1.21-2.4 1.61-3.2.59 3.31.99 6.64 1.29 9.99 1.52 4.62 2.08 9.48 2.99 14.25.55 2.39-.41 4.72-.98 7 .49-.87 1.46-2.62 1.95-3.49.03 1.81-.07 3.66-.35 5.46.31.21.95.64 1.26.86.16 2.76-.39 5.5-.72 8.24.45-1.46.91-2.91 1.37-4.36.19 1.1.58 3.31.78 4.41-.49 1.23-.99 2.46-1.47 3.7.49-.47 1.47-1.42 1.96-1.9 1.88 12.29 4.2 24.51 6.61 36.7-.52.67-1.04 1.35-1.55 2.02-.02-1.09-.06-3.26-.08-4.35-.97 1.58-2.19 3.09-2.63 4.93.05 1.73.65 3.39 1.07 5.06 1.22-1.65 2.56-3.35 2.51-5.55.34.04 1.02.12 1.35.16.23 1.4.5 2.8.83 4.2.08 1.45.16 2.91.23 4.37 4.31.21 8.65.86 12.94.14 2.46-.23 5.04-1.14 7.47-.21.27 1.14.4 2.3.4 3.49-.05 48.44-.03 96.87-.02 145.3 7.5-.13 15.01.34 22.5-.28 1.94-26.06 4.58-52.06 6.79-78.1 1.55-16.11 2.52-32.28 4.24-48.36 2.52-38.77 5.34-77.62 5.1-116.52-.17-24.25-1.32-48.57-5.23-72.54-3.29-19.25-8.5-38.67-19.45-55.1 2.99-.02 6.02.27 8.98-.23 1.79-.85 3.35-2.11 5.15-2.95 1.86-.29 3.76-.19 5.65-.2.32 1.14.65 2.27.99 3.42 4.46-.11 8.94-.11 13.41-.14 1-21.32 1.02-42.69 2.33-63.99.62 1.14 1.06 2.39 1.02 3.71.5 20.13.88 40.25 1.48 60.37 7.1.04 14.21.03 21.32 0-.78 4.28-3.26 7.91-5.25 11.68-7.01 12.7-11.89 27.18-10.41 41.85 1.1 9.09 3.09 18.04 4.24 27.12 7.44 46.78 11.64 94.05 13.53 141.37 3.55-2.77 6.72-5.99 10.01-9.05 2.21 0 4.41.05 6.63-.01 5.45.52 8.48-6.03 13.97-5.43 14.02.04 28.05.01 42.07.01 3.92-.39 5.74 3.87 8.97 5.25 2.92.37 5.88.14 8.82.11 3.04 3.26 6.25 6.38 9.12 9.8 1.4 1.63.78 3.97 1 5.95-.11 9.34.71 18.7.05 28.04-.37 5.03 1.16 9.95.84 14.98.29 26.48 1.02 52.96 1.51 79.44 6.02-.1 12.04-.16 18.06-.16-.96 8.23-2.13 16.44-3.04 24.69 6.48-.08 12.97-.02 19.46-.06.09-42.56-.25-85.13.17-127.68 6.51.19 13.04-.03 19.56.18.36-18.18.03-36.38.16-54.56 3.64-.06 7.28-.04 10.92.13-.01 16.63-.25 33.27.14 49.9.92 1.38 1.69 2.85 2.32 4.4 2.79.04 5.57.03 8.36.03.09-1.19.18-2.38.28-3.56.76.01 2.28.04 3.04.05.85-.87 1.7-1.74 2.56-2.61-.52-2.04-2.3-4.67-.25-6.44 2.37-.63 4.79.94 7.24.94.15 3.9.93 7.74 1.05 11.65 1.59 0 3.19 0 4.81.02-.14 18.85.01 37.7-.03 56.56 6.46.03 12.93.21 19.39-.02.3-54.19 1.22-108.37 1.52-162.56 8.66.14 17.3.61 25.96.78 5.9.02 10.76 4.29 14.18 8.72 6.23 8.68 8.58 19.39 10.51 29.7 4.02 24.37 4.49 49.16 8.36 73.55 2.33 14.36 5.62 28.92 13.05 41.6.81-.48 1.62-.97 2.44-1.44-.23-26.48.02-52.97-.05-79.46 7.46-.01 14.92-.01 22.39.01.04-32.97.01-65.93.01-98.9-.04-1.34.17-2.76 1.32-3.61 3.44-3.19 6.7-6.6 10.32-9.57 2.12-.91 4.62-.31 6.9-.47 3-16.76 5.68-33.59 8.71-50.34.08-2.6 1.91-.13 1.73.99 2.88 16.13 5.96 32.23 8.7 48.39-.71-.59-2.11-1.77-2.81-2.36.22.59.66 1.75.88 2.33 4.98 1.45 10.19.97 15.32 1.01 15.44 0 30.88 0 46.33-.01.04-7.07.04-14.13-.01-21.2 3.64-.08 7.28-.09 10.92-.06.04 7.1-.05 14.2.06 21.3 3.25-.04 6.5-.04 9.76.01-.03 123.66.01 247.33-.02 371 6.68.06 13.36-.02 20.05.06 6.49-5.67 12.67-11.7 19.14-17.41.09-58.28.05-116.55.01-174.83 1.48-.09 2.97-.17 4.47-.25-.06-63.92-.07-127.84.01-191.76-1.22-.09-2.42-.18-3.62-.26.01-11.87.1-23.74-.04-35.6-7.27-1.13-14.86-2.24-21.27-6.07-2.29-1.28-4.29-4.38-2.3-6.78 2.82-3.34 7.27-4.57 11.3-5.8 11.45-3 23.38-3.76 35.18-3.69 11.4.16 22.95 1.03 33.92 4.33 3.57 1.27 7.78 2.58 9.71 6.14 1.11 2.73-1.51 5.09-3.66 6.29-6.64 3.55-14.23 4.65-21.58 5.74-.02 11.84 0 23.68-.01 35.52-.87.02-2.59.07-3.45.09.01 63.99-.03 127.98 0 191.97 15.26-.04 30.53.14 45.79-.09.02-31.95-.27-63.94.21-95.87 3.81-7.34 8.71-14.1 12.9-21.24 5.42-8.34 10.05-17.17 15.87-25.25 6.43-.75 12.97-.07 19.46-.31.07-10.7.32-21.4.29-32.1 7.18-.34 14.39.21 21.57-.26 3.68-5.41 6.66-11.38 9.7-17.19.81-8.17.09-16.47.33-24.69 0-31.05-.01-62.09.01-93.14 3.99-.01 8-.02 12.01-.01 0-1.78.01-3.56.05-5.34.84.03 1.7.06 2.58.1-4.28-3.06-1.97-8.42.44-11.88-1.06-1.34-2.07-2.71-3.03-4.1 1.41.85 2.76 1.79 4.14 2.73 2.72-2.01 6.61-5.14 9.93-2.47 2.62 3.22.1 7.39-1.51 10.47 1.68 1.67 3.25 3.51 5.27 4.8 1.72.54 3.57.31 5.38.45-.03 1.73-.02 3.47-.02 5.21 14.13.17 28.27-.19 42.4.18-.1 3.57-.13 7.14-.05 10.71 3.78-3.25 6.83-7.26 10.68-10.43 4.25-1.02 8.8-.21 13.17-.43-.04 2.53-.07 5.07-.11 7.61.53.23 1.6.71 2.13.95 1.62 4.09 4.34 8.01 4.03 12.61-.13 37.96.07 75.93-.1 113.89 6.85.25 13.7.1 20.56.11.07-116.34-.15-232.7.12-349.03m-110.99 208.67c1.9-.1 3.82-.13 5.75-.13.05-1.16.11-2.32.19-3.48-1.86 1.4-3.83 2.65-5.94 3.61m-.06 22.34c.03 16.48-.05 32.95.04 49.43 2.26-2.76 4.71-5.41 6.62-8.43.51-11.2-.19-22.44.35-33.63 8.7.16 17.41-.04 26.12.11 2.08-2.4 4.06-4.9 5.94-7.47-13.02-.06-26.05-.03-39.07-.01m-312.87 84.94c.02 3.33 3.03-1.39 0 0m-.7 3.05c.16 3.32 2.97-1.59 0 0m-1.52 3.47c1.07 1.43 2.6 2.5 4.4 1.35-.77-1.91-2.69-2.17-4.4-1.35m7.08-.03c-.93 1.17-.7 1.84.7 2.01.91-1.17.68-1.84-.7-2.01m-7.89 4.98c1.39.8 2.81 2.33 4.49 1.18.83-2.84-3.06-2.59-4.49-1.18m7.98-.34c-.52 1.65.02 2.22 1.62 1.73.5-1.66-.04-2.23-1.62-1.73m-8.55 5.25c.95.99 1.86 1.99 2.83 2.98.8-.89 1.61-1.77 2.42-2.66-.63-.63-1.25-1.26-1.87-1.89-1.14.52-2.27 1.04-3.38 1.57m9.7 2.15c1.34-.24 1.57-.97.71-2.18-1.35.22-1.58.95-.71 2.18m-5.42 1.95c1 .8 2.02 1.61 3.04 2.41-.05-1.47-.08-2.93-.11-4.4-1.01.64-1.95 1.34-2.93 1.99m4.24-.29c-1.59 2.95 3.31.19 0 0m1105.3 1.47c1.92.63 4.27.78 6.2.01-1.08-1.45-5.14-1.38-6.2-.01m14.85-.44c.24 1.3.99 1.53 2.26.7-.3-1.31-1.05-1.54-2.26-.7m-1129.7 3.32c1.2 1.02 2.81-.96 2.22-2.14-1.14-.77-3.3.93-2.22 2.14m12.59-1.23c-1.89 2.75 3.29.57 0 0m1099.8 1.22c3.06.46 6.24.89 9.29-.06-3-1.35-6.3-1.03-9.29.06m18.26-.36c-.03 1.44 2.43 1.4 3.3.66-.14-1.33-2.51-1.43-3.3-.66m-1132 1.31c-1.21.7-.21 3.29 1.06 1.98 1.03-.75.25-3.12-1.06-1.98m5.41 1.96c1.05 1.67 2.87 1.98 4.73 2.07-.1-1.42-.19-2.84-.28-4.25-1.49.72-2.98 1.44-4.45 2.18m1121.6-2.1c-1.75.21-.9 2.59.63 1.93 1.67-.24.79-2.59-.63-1.93m-15.47 2.2c3.8 1.02 7.92 2.19 11.63.15-3.67-1.88-7.83-.93-11.63-.15m18.5-1.22c.55.48.55.48 0 0m-1118.4 1c-1.58 2.98 3.34.2 0 0m1120.2-.23c1.58 2.12 4.28 2.54 6.05.4-2.01-.42-4.06-.71-6.05-.4m-3.69 1.55c-2.13.39-4.25.71-6.35.98 2.55.74 5.14 1.36 7.77 1.92l-.35-1.36c.85.16 2.54.46 3.38.62.63-2.51-2.08-1.12-3.37-1.07-.27-.27-.81-.81-1.08-1.09m-18.81 2.98c.05.43.13 1.31.17 1.74-2.25-.43-5.29-1.52-5.9 1.56 5.06.01 9.42-3 14.07-4.64-2.76.6-5.56 1.02-8.34 1.34m27.76-.37c-.65 1.65 3.27 3.06 3.7 1.19-.71-1.19-2.49-1.69-3.7-1.19m-17.65 3.48c5.51.32 11.02-.44 16.54.05-5.14-2.44-11.25-1.58-16.54-.05m-1578.8 3.64c-1.52 2.98 3.33.23 0 0m2.39 2.93c.46.59.46.59 0 0m450.88 5.97c-.02 2.01-.04 4.03-.02 6.05 2.14-1.84 4.14-3.84 5.99-5.97 3.45 1.03 6.71 2.57 10.01 4 1.58-1.19 3.4-1.65 5.29-.86-.16 1.48-.48 3.37 1.41 3.87.13-2.35.13-4.71.08-7.06-5.36-1.94-10.48-4.51-15.88-6.32-2.78 1.44-4.57 4.24-6.88 6.29m-451.16-2.94c-1.58 2.99 3.29.23 0 0m-2.61 1.97c-.58 1.61-.04 2.16 1.61 1.65.56-1.63.02-2.18-1.61-1.65m5.82.95c.48.55.48.55 0 0m-7.81 4.13c-.24 1.81-1.46 4.85 1.55 4.63-.41-1.58-.82-3.15-1.21-4.71 2.17 1.11 4 2.78 6.24 3.78-1.02-1.86-2.42-3.49-3.95-4.93-.89.38-1.77.79-2.63 1.23m455.72 9.56c.01 2.05.03 4.11.05 6.16 2.1-1.99 4.14-4.03 6.12-6.14 5.63 2.06 11.07 4.62 16.7 6.7-.02-2.22-.03-4.43-.04-6.64-5.42-2.23-10.84-4.44-16.23-6.69-2.23 2.18-4.44 4.38-6.6 6.61m-453.92-3.69c.49.56.49.56 0 0m1.65 2.28c.89.86 1.79 1.73 2.69 2.6-.4.49-1.19 1.46-1.58 1.94.59 1.51 1.15 3.07 2.2 4.34-.06-3.7-.33-7.39-.49-11.07-.95.72-1.89 1.46-2.82 2.19m4.24-.3c-1.56 2.97 3.31.19 0 0m-9.07 2.59c1.57 1.94 3.98 3.02 5.68.52-.49-.63-1.48-1.88-1.97-2.51-1.25.65-2.48 1.32-3.71 1.99m11.02-.64c-1.53.39-.75 3.13.76 2.72 1.41-.55.76-3.01-.76-2.72m-1.96 3.24c-.87 1.22-.63 1.94.72 2.15.85-1.24.61-1.95-.72-2.15m-9.39 4.04c1.11.85 2.2 1.72 3.44 2.4 1.32-.04 2.48-.82 3.72-1.23-1.2-1.23-2.25-2.86-3.94-3.42-1.14.65-2.17 1.47-3.22 2.25m11.57-1.55c-.77 1.52-1.27 4.36 1.38 3.93.9-1.59-.03-3.06-1.38-3.93m445.95 7.48c-.06 2.08-.07 4.15-.04 6.23 2.2-1.98 4.26-4.1 6.45-6.09 5.39 2.39 10.88 4.59 16.37 6.79.01-2.3-.04-4.6-.19-6.89-5.39-1.79-10.45-4.42-15.81-6.23-2.68 1.39-4.43 4.27-6.78 6.19m-458.48.69c1.42 1.21 2.87 2.4 4.33 3.59 1.71-.85 3.4-1.73 5.09-2.64-1.58-1.29-3.25-2.45-4.99-3.48-1.47.86-2.96 1.69-4.43 2.53m13.51-1.87c-.63.94-1.29 1.88-1.81 2.89.68.97 1.5 1.86 2.29 2.77.6-.99 1.2-1.98 1.81-2.97-.78-.9-1.52-1.8-2.29-2.69m-13.95 9.38c-.55 2 2.58 2.45 3.71 3.64 1.65-.92 3.31-1.81 4.99-2.68-1.18-1.23-2.33-2.6-3.93-3.29-1.69.55-3.28 1.37-4.77 2.33m13.15.7c.95.93 1.53 2.9 3.2 2.64.44-.77.86-1.54 1.27-2.33-.98-.88-1.94-1.75-2.89-2.63-.4.58-1.19 1.74-1.58 2.32m-16.42 8.52c2.14 1.76 4.28 3.52 6.37 5.34 2.68-1.22 5.28-2.63 7.81-4.13-2.36-1.82-4.8-3.53-7.24-5.22-2.37 1.24-4.68 2.59-6.94 4.01m19.14-3.08c-.93 1.47-1.86 2.94-2.78 4.41 1.24 1.41 2.5 2.81 3.76 4.22.98-1.46 1.9-2.96 2.83-4.45-1.17-1.49-2.42-2.9-3.81-4.18m-20.95 14.37c2.49 2.11 5.14 4 7.76 5.95 2.71-1.37 5.44-2.74 7.93-4.5-2.59-1.92-5.06-3.98-7.62-5.92-2.66 1.56-5.37 3-8.07 4.47m22.13-3.32c-.88 1.76-1.76 3.52-2.66 5.27 1.31 1.48 2.7 2.91 4.14 4.28 1.03-1.73 2.05-3.47 3.08-5.2-1.39-1.59-2.86-3.1-4.56-4.35m-4.69 7.28c-1.3 2.18-2.56 4.4-3.76 6.64 1.46.97 2.92 1.95 4.4 2.92-.1-3.2-.3-6.39-.64-9.56m1.63 1.05c-.04 2.54.01 5.08 0 7.62 1.04.13 2.08.26 3.12.41.31 2.91 1.39 5.69 3.03 8.12 1.19-2.4 2.54-4.72 3.54-7.19-1.34-2.18-3.34-3.83-5.16-5.57-.72 1.44-1.41 2.89-2.07 4.35-1.09-2.49-1.66-5.16-2.46-7.74m-21.32 7.74c3.14 2.68 6.35 5.28 9.45 8.01 2.05-3.07 3.99-6.22 5.74-9.48-1.78-1.28-3.54-2.58-5.3-3.87-3.3 1.78-6.66 3.44-9.89 5.34m1240.3 2.31c.12 9.63.02 19.27.06 28.91.2 12.62-.99 25.25 0 37.86.67.05 1.99.13 2.66.18.02-22.38-.15-44.76.6-67.13-.83.04-2.49.13-3.32.18m84.5.22c2.9 3.39 6.63 5.92 9.95 8.88 9.04 7.65 18.1 15.28 27.15 22.92.01 12.92-.02 25.85.01 38.77 2.63.06 5.28.14 7.94.25.11 27.85-.21 55.71.17 83.55 13.25 4.19 26.41 8.7 39.63 13.03.12-55.9-.09-111.75.09-167.65-16.57-.2-33.14-.03-49.7-.09-11.75.21-23.53-.43-35.24.34m139.45-.27c.12 26.85-.01 53.71.07 80.56 9.49.08 19.01-.23 28.5.16-.16 9.21-.03 18.41-.06 27.62 21.6.11 43.21 0 64.82.04-.02 23.33.07 46.67-.05 70.01 4.13.19 8.26.06 12.41.18.4-5.89.1-11.79.2-17.68-.01-53.65.01-107.3-.01-160.95-35.29.02-70.59-.09-105.88.06m-1453.3 6.9c3.42 2.9 6.77 5.88 10.38 8.54-.15-4.79-.57-9.55-.76-14.33-3.26 1.83-6.45 3.79-9.62 5.79m10.9-4.66c.14 3.97.37 7.94.7 11.9 1.95-1.69 2.79-4.22 4.04-6.39-1.4-1.99-2.97-3.85-4.74-5.51m-24.89 13.03c.74.87 1.41 1.8 2.17 2.69.94-1.11 2.26-1.56 3.68-1.61 1.94-2.24 3.16-5.02 4.88-7.42-3.6 2.06-7.08 4.35-10.73 6.34m35.29 5.6c.71-1.3 1.43-2.6 2.13-3.9-1.96-2.45-3.91-4.9-6.1-7.14 1.2 3.72 2.66 7.35 3.97 11.04m-36.07-4.23c-.54 4.19-2.13 8.39-1.18 12.64 1.78-2.68 3.71-5.31 4.99-8.29-.43-2.03-2.4-3.07-3.81-4.35m12.24 7.99c-.05.2-.16.62-.22.83 1.85 1.78 3.88 3.36 5.79 5.07 2.77.04 5.56.04 8.34.01-.25-4.17-.52-8.34-.75-12.52-4.39 2.2-8.84 4.28-13.16 6.61m14.52-5.74c.09 1.6.2 3.21.27 4.83.5-1.2 1.37-2.04 2.68-2.32-.99-.84-1.98-1.67-2.95-2.51m3.53 7.7c-.81-.19-2.45-.58-3.27-.77.09 1.55.19 3.11.29 4.67 1.3.04 2.6.05 3.92.1-.33-3.19 1.34-.92 2.26-.5 1.31.89 3.04.37 4.53.55-1.12-1.82-2.63-3.33-4.59-4.19-.1-3.18-2.43-1.92-3.14.14m-29.61 4c5.06-.02 10.11-.06 15.17.02-1.78-1.84-3.69-3.55-5.76-5.05-3.11 1.72-6.36 3.19-9.41 5.03m38.9-1.91c-.36 1.59.28 2.19 1.91 1.81.36-1.6-.28-2.2-1.91-1.81m287.52 23.44c.52.53.52.53 0 0m-579.87 90.84c.18 24.3.02 48.6.08 72.9.1.29.3.87.4 1.17 14.59.24 29.2.07 43.8.17-7.9-18.3-16.27-36.4-24.29-54.65-1.15-3.14-1-6.93-3.6-9.39-4.56-4.72-11.31-6.16-16.39-10.2z" fill="#1a1a1a"/></svg>