<svg enable-background="new 0 0 256 256" viewBox="0 0 256 256" xmlns="http://www.w3.org/2000/svg"><path d="m256 128c0 70.7-57.3 128-128 128s-128-57.3-128-128 57.3-128 128-128 128 57.3 128 128z" fill="#a6ce39"/><g fill="#fff"><path d="m86.3 186.2h-15.4v-107.1h15.4v48.4z"/><path d="m108.9 79.1h41.6c39.6 0 57 28.3 57 53.6 0 27.5-21.5 53.6-56.8 53.6h-41.8zm15.4 93.3h24.5c34.9 0 42.9-26.5 42.9-39.7 0-21.5-13.7-39.7-43.7-39.7h-23.7z"/><path d="m88.7 56.8c0 5.5-4.5 10.1-10.1 10.1s-10.1-4.6-10.1-10.1c0-5.6 4.5-10.1 10.1-10.1s10.1 4.6 10.1 10.1z"/></g></svg>