<svg height="864" viewBox="0 0 1184 864" width="1184" xmlns="http://www.w3.org/2000/svg" xmlns:xlink="http://www.w3.org/1999/xlink"><linearGradient id="a" x1="0" x2="0" y1="0" y2="1"><stop offset="0" stop-color="#5a5580"/><stop offset=".32" stop-color="#413a5f"/><stop offset=".6" stop-color="#241f38"/><stop offset=".82" stop-color="#120f1c"/><stop offset="1" stop-color="#070510"/></linearGradient><radialGradient id="b" cx=".5" cy=".5" r=".5"><stop offset="0" stop-color="#8a6cc0" stop-opacity=".45"/><stop offset=".55" stop-color="#5b4a8f" stop-opacity=".18"/><stop offset="1" stop-color="#5b4a8f" stop-opacity="0"/></radialGradient><linearGradient id="c" x1="0" x2="0" y1="0" y2="1"><stop offset="0" stop-opacity=".12"/><stop offset=".5" stop-opacity=".28"/><stop offset="1" stop-opacity=".72"/></linearGradient><path d="m0 0h1184v864h-1184z" fill="url(#a)"/><g opacity=".9"><circle cx="990" cy="150" fill="#f2eede" r="46"/><circle cx="1012" cy="138" fill="#4a4468" r="46"/></g><g fill="#ece4ff"><circle cx="397.5" cy="75.3" opacity=".39" r="1.38"/><circle cx="631.6" cy="139.7" opacity=".65" r=".67"/><circle cx="81.4" cy="160.1" opacity=".4" r=".68"/><circle cx="508.7" cy="278.1" opacity=".48" r=".75"/><circle cx="732.7" cy="314.3" opacity=".59" r="1.29"/><circle cx="1117.8" cy="44" opacity=".52" r="1.63"/><circle cx="199.3" cy="65.3" opacity=".84" r=".97"/><circle cx="239.5" cy="204.5" opacity=".57" r="1.37"/><circle cx="644.7" cy="48.8" opacity=".47" r=".67"/><circle cx="791.2" cy="158.3" opacity=".7" r=".98"/><circle cx="540.3" cy="119.9" opacity=".77" r="1.55"/><circle cx="309.5" cy="202.3" opacity=".88" r="1.23"/><circle cx="845.3" cy="116.4" opacity=".42" r="1.78"/><circle cx="501.6" cy="257.1" opacity=".64" r=".78"/><circle cx="83.3" cy="230.5" opacity=".69" r="1.52"/><circle cx="1006.5" cy="124.1" opacity=".71" r="1.43"/><circle cx="680.2" cy="166.9" opacity=".92" r="1.61"/><circle cx="563.4" cy="229.2" opacity=".77" r=".67"/><circle cx="754.4" cy="327.9" opacity=".52" r="1.59"/><circle cx="465.9" cy="230.6" opacity=".63" r=".63"/><circle cx="225.5" cy="65.1" opacity=".81" r=".67"/><circle cx="182.8" cy="104.3" opacity=".87" r="1.07"/><circle cx="129" cy="164.8" opacity=".88" r="1.26"/><circle cx="944.5" cy="289.2" opacity=".6" r=".93"/><circle cx="436.1" cy="295.3" opacity=".44" r="1.75"/><circle cx="234.5" cy="99.6" opacity=".64" r=".88"/></g><ellipse cx="592" cy="470" fill="url(#b)" rx="720" ry="240"/><svg height="524" preserveAspectRatio="xMidYMax meet" viewBox="-46.032 -45.883 2322.1 1027.4" width="1184" y="342"><path d="m1347.1 0h.54c1.63 12.91.67 26.01 1.48 38.99 2.31 81.33 4.34 162.67 6.55 244 .63 19.02.68 38.06 1.78 57.06.82-8.98 3.1-18.01 7.93-25.7 3.11-4.96 7.71-9.33 13.51-10.81 3.55-1.02 7.28-.32 10.84.35-.15-33.65.02-67.3-.09-100.95-.16-5.25 3.11-9.68 4.75-14.49.6-.16 1.81-.48 2.41-.65.29-2.86.26-5.83 1.25-8.57 1.03-2 2.54-3.68 3.93-5.44 1.07-.09 2.17-.17 3.28-.24.58-2.87 1.75-5.56 3.62-7.82 3.09.01 6.2-.03 9.32-.11 1.72 2.36 2.74 5.1 3.16 8 1.09.09 2.19.18 3.31.27 1.68 2.52 4.3 4.78 4.37 8.04.21 1.95.32 3.91.46 5.87 1.07.18 2.16.37 3.27.55 1.33 4.53 3.87 8.79 4.12 13.58.01 54.77-.02 109.55.01 164.32 5.37-.05 10.75.13 16.12-.02 3.69.1 6.52-2.58 9.48-4.38 2.14 4.4 1.04 9.42 1.31 14.13.3 8.23-.24 16.46.05 24.69 14.93-13.33 29.6-26.95 44.13-40.71 1.06-1.11 2.48-2.21 2.28-3.94.09-9.04.01-18.08 0-27.12-3.23 1.23-6.61 3.11-10.16 2.33-1.85-.41-2.81-2.4-2.64-4.14.26-4.33 2.73-8.04 4.76-11.72-1.71-.81-4.32-1.1-4.63-3.4-.6-4.91 2.47-9.21 4.72-13.3-2.35-.55-5.25-1.64-4.86-4.62.62-6.5 4.81-11.94 8.69-16.93 1.54-2.23 4.34-4.09 4.15-7.09.04-7.93-.04-15.87 0-23.8 7.81-.06 15.61-.05 23.42-.01 0 2.41 0 4.83.01 7.25 2.67-.78 5.43-2.03 8.3-1.53 1.79.36 3.06 2.2 2.93 4.01-.21 4.45-2.78 8.31-4.95 12.05 2.08.57 4.9 1.22 4.94 3.94.05 4.71-2.68 8.8-5.01 12.68 1.73.81 5.08.65 5.05 3.27.35 6.16-4.29 10.99-5.56 16.8-.57.1-1.73.29-2.31.39-1.29 1.78-3.54 3.33-3.31 5.78.02 7.51-.22 15.02.02 22.53 20.59-22.21 38.98-47.09 50.58-75.24 8.15-.25 16.31-.09 24.48-.09-16.03 34.51-32.52 68.78-48.66 103.24-8.86 18.98-17.61 38.02-25.49 57.43-1.51 3.54-.96 7.46-1.02 11.21.17 44.35-.07 88.71.01 133.06.15 4.86 2.46 9.27 3.7 13.89 2.63 9.47 6.52 18.53 9.08 28.02 10.49.47 21 .07 31.51.22 1.73 36.62 3.33 73.25 5.02 109.87.41 7.73.41 15.51 1.45 23.21 4.23-52.03 9.2-104 13.7-156 1.27-10.34.86-20.76.88-31.15.01-15.27-.07-30.53.05-45.79 7.27-2.15 14.02-7.14 21.9-6.36 8.71.26 17.41.7 26.13.84-.01-31.44-.07-62.89.04-94.33 3.67.01 7.35.02 11.05.04 1.08-5.85 1.82-11.76 3.26-17.53 2.79 5.36 2.46 11.74 4.03 17.51 6.62.06 13.25-.15 19.89.14-.12 5.11-.06 10.22-.11 15.33 1.19.05 2.4.1 3.64.16.33-17.78.9-35.54 1.22-53.31 6.76 5.32 13.13 11.12 19.84 16.51.13-21.33-.12-42.67.12-64.01 9.67-5.21 20.42-8.24 31.44-8.34-.11-4.99-.09-9.97-.06-14.96 3.61-.01 7.22-.01 10.85 0 .02 5.57.01 11.15 0 16.73 6.19 1.54 12.09 3.99 17.93 6.52.16 4.18.14 8.37.12 12.56-6.04-.22-12.07-.58-18.1-.71 0 1.24.02 2.49.07 3.75 6.01.26 12.04.45 18.06.85-.04 1.53-.06 3.07-.05 4.61-6.01-.23-12-.42-17.99-.76 0 .95-.02 2.85-.02 3.8 5.98.3 11.98.56 17.98.78.01 1.56.05 3.13.1 4.7-6.05-.19-12.08-.56-18.12-.72-.02 1.24-.02 2.48-.01 3.73 6.03.33 12.08.45 18.12.93-.08 13.41-.02 26.82-.04 40.23-.07 9.02.27 18.05-.48 27.05 28.27-.03 56.54.14 84.8-.09-.1-10.91-.09-21.83-.01-32.74 5.47-1.75 7.18-7.7 8.76-12.58 3.62-12.9 5.24-26.27 6.5-39.58 2.97-26.24 3.92-52.66 6.61-78.93.87-5.73.89-11.87 3.63-17.11 1.45-2.11 3.44.4 3.84 2.04 2.43 7.44 3.02 15.32 4.01 23.04 2.75 25.31 4.64 50.69 7.56 75.98 1.49 11.84 2.99 23.74 6.16 35.27 1.38 4.5 2.72 9.85 7.44 11.98.1 10.89.07 21.77.02 32.66 35.29.17 70.58.04 105.87.06.02-23.4-.01-46.81.01-70.21 1.41-.07 2.86-.13 4.33-.19 1.3-2.05 2.63-4.07 4.03-6.06l-1.08-.72c4.72-3.36 6.53-9.39 10.22-13.76-.34-.1-1.03-.29-1.37-.39 2.54-.49 3.65-2.77 4.54-4.95 1.74-2.15 3.44-4.33 5.18-6.5 1.89 2.46 3.68 4.99 5.4 7.58-.46.64-.89 1.28-1.29 1.93.38-.44 1.15-1.33 1.54-1.78 4.82 7.21 9.76 14.35 14.83 21.38-1.3 1.08-2.51 2.21-3.68 3.39 1.95.18 3.83-.38 5.2-1.86.23 2.26 2.66 1.6 4.15 2.15.06 161.26-.01 322.52.04 483.79 6.81-.03 13.63.01 20.46-.04-.02-65.24-.04-130.47.01-195.71h9.45c-.01-2.8-.01-5.6.01-8.38 2.53-.02 5.08-.02 7.65.01 2.85-2.58 5.64-5.24 8.45-7.89-2.16-3.61-4.63-7.51-4.15-11.9.19-2.54 2.29-4.89 4.92-4.93 4.52-.24 8.14 2.94 11.36 5.68 1.69-1.79 3.48-3.57 5.75-4.66-1.39 1.91-3.08 3.57-4.55 5.39.93 3.27 3.67 5.96 4.1 9.5.83 3.11-.41 7.24-3.9 7.99-4.76.82-8.82-2.61-12.11-5.56.03 2.1.04 4.21.08 6.32 5.42.04 10.85.03 16.28.04-.01 2.79-.01 5.58.02 8.38 27.86.08 55.73-.11 83.6.1-.18 47.8.09 95.6-.14 143.41 4.85.21 9.7.12 14.57.13.04 56.77-.01 113.54.03 170.31h-2229v-199.6c5.66-.64 11.36-.22 17.03-.32 19.48-.1 38.96.17 58.44-.14 2.96-13.43 6.19-26.8 9.26-40.2 1.06-4.88 2.7-9.71 2.62-14.76-.07-15.04.02-30.07-.05-45.1 11.09-.29 22.18-.17 33.27-.33 9.13-9.67 18.1-19.51 27.4-29.02-.38 43.2-.19 86.4-.22 129.6 1.95-.08 3.91-.15 5.87-.22-.16-35.96-.03-71.92-.07-107.88.12-51.12-.23-102.25.18-153.36 2.52 4.28 3.99 9.35 7.96 12.63 4.25 4.2 11.36 5.18 16.38 1.76 5.74-3.56 8.26-10.14 10.43-16.2-.04 23.55.06 47.1-.05 70.66 3.73.1 7.46.12 11.19.09.03-1.94.02-3.88.05-5.81 2.7-.01 5.41 0 8.11.01.08 1.94.16 3.9.26 5.85 3.2-.05 6.4-.06 9.6-.06.01-5.26-.01-10.53.02-15.79 2.33-.02 4.65-.02 6.98-.03 0-1.66.01-3.32.02-4.97 2.14-.01 4.29-.02 6.44-.01.02 1.65.04 3.32.06 4.99 2.23.01 4.46.01 6.7.03.02 5.29-.11 10.59.16 15.88 1.87-.05 3.74-.09 5.61-.12.01-2.93.02-5.85.03-8.77 8.39-.01 16.78-.04 25.17.01.01 2.94.05 5.88.16 8.83 4.13-.04 8.25-.05 12.38-.06 2.24-125.18 4.69-250.33 6.93-375.5.33.02.98.06 1.3.09-.16 71.92 0 143.85-.08 215.77-.07 3.16-.13 6.35.56 9.46-.14.39-.43 1.16-.57 1.55.03 49.51.1 99.02-.04 148.53 8.1.27 16.2.04 24.3.14.09-51.53-.04-103.06.09-154.58.36-4.12 1.61-8.11 3.04-11.97.93-2.57 2.93-5.34 6-5.13 8.53-.13 17.07-.16 25.61-.08.04-1.52.09-3.02.13-4.53 5.59-.13 11.19-.11 16.78-.02-.08 1.29-.16 2.59-.23 3.89 2.14.85 4.68 1.62 5.62 3.99 2.91 6.5 3.63 13.77 3.36 20.83-.01 49.2-.05 98.4.02 147.6 13.57-.03 27.15-.06 40.72.02.14-32.01.02-64.01.06-96.01 8.27-.37 16.74.97 24.82-1.35-.37-.71-1.13-2.11-1.5-2.82 5.57-33.04 11.34-66.05 16.85-99.09.72-.17 2.14-.51 2.85-.67-.69-.01-2.07-.02-2.76-.03.73-3.6 1.52-7.21 1.58-10.9.77.41 1.54.84 2.31 1.29-.34-1.07-.87-2.03-1.59-2.88.28-1.85.63-3.7 1.04-5.52.25 1.2.75 3.61 1 4.82-.12-4.2-1.48-8.42.32-12.52 2.47 4.38 2.2 9.62 3.54 14.36-.33.42-.98 1.25-1.3 1.67l1.84.56c.11 1.05.35 3.15.47 4.21-.69-.35-2.05-1.04-2.74-1.39 2.82 1.16 3.81 3.81 3.4 6.73.58 1.96 1.09 3.94 1.59 5.94-1.53.25-3.22.29-4.29 1.58.69-.18 2.06-.53 2.75-.71.01 1.53-.14 3.14.58 4.57.04-1.65.03-3.3-.04-4.94l1.13-.16c.63 2.92.56 5.9-.69 8.64.4-.8 1.21-2.4 1.61-3.2.59 3.31.99 6.64 1.29 9.99 1.52 4.62 2.08 9.48 2.99 14.25.55 2.39-.41 4.72-.98 7 .49-.87 1.46-2.62 1.95-3.49.03 1.81-.07 3.66-.35 5.46.31.21.95.64 1.26.86.16 2.76-.39 5.5-.72 8.24.45-1.46.91-2.91 1.37-4.36.19 1.1.58 3.31.78 4.41-.49 1.23-.99 2.46-1.47 3.7.49-.47 1.47-1.42 1.96-1.9 1.88 12.29 4.2 24.51 6.61 36.7-.52.67-1.04 1.35-1.55 2.02-.02-1.09-.06-3.26-.08-4.35-.97 1.58-2.19 3.09-2.63 4.93.05 1.73.65 3.39 1.07 5.06 1.22-1.65 2.56-3.35 2.51-5.55.34.04 1.02.12 1.35.16.23 1.4.5 2.8.83 4.2.08 1.45.16 2.91.23 4.37 4.31.21 8.65.86 12.94.14 2.46-.23 5.04-1.14 7.47-.21.27 1.14.4 2.3.4 3.49-.05 48.44-.03 96.87-.02 145.3 7.5-.13 15.01.34 22.5-.28 1.94-26.06 4.58-52.06 6.79-78.1 1.55-16.11 2.52-32.28 4.24-48.36 2.52-38.77 5.34-77.62 5.1-116.52-.17-24.25-1.32-48.57-5.23-72.54-3.29-19.25-8.5-38.67-19.45-55.1 2.99-.02 6.02.27 8.98-.23 1.79-.85 3.35-2.11 5.15-2.95 1.86-.29 3.76-.19 5.65-.2.32 1.14.65 2.27.99 3.42 4.46-.11 8.94-.11 13.41-.14 1-21.32 1.02-42.69 2.33-63.99.62 1.14 1.06 2.39 1.02 3.71.5 20.13.88 40.25 1.48 60.37 7.1.04 14.21.03 21.32 0-.78 4.28-3.26 7.91-5.25 11.68-7.01 12.7-11.89 27.18-10.41 41.85 1.1 9.09 3.09 18.04 4.24 27.12 7.44 46.78 11.64 94.05 13.53 141.37 3.55-2.77 6.72-5.99 10.01-9.05 2.21 0 4.41.05 6.63-.01 5.45.52 8.48-6.03 13.97-5.43 14.02.04 28.05.01 42.07.01 3.92-.39 5.74 3.87 8.97 5.25 2.92.37 5.88.14 8.82.11 3.04 3.26 6.25 6.38 9.12 9.8 1.4 1.63.78 3.97 1 5.95-.11 9.34.71 18.7.05 28.04-.37 5.03 1.16 9.95.84 14.98.29 26.48 1.02 52.96 1.51 79.44 6.02-.1 12.04-.16 18.06-.16-.96 8.23-2.13 16.44-3.04 24.69 6.48-.08 12.97-.02 19.46-.06.09-42.56-.25-85.13.17-127.68 6.51.19 13.04-.03 19.56.18.36-18.18.03-36.38.16-54.56 3.64-.06 7.28-.04 10.92.13-.01 16.63-.25 33.27.14 49.9.92 1.38 1.69 2.85 2.32 4.4 2.79.04 5.57.03 8.36.03.09-1.19.18-2.38.28-3.56.76.01 2.28.04 3.04.05.85-.87 1.7-1.74 2.56-2.61-.52-2.04-2.3-4.67-.25-6.44 2.37-.63 4.79.94 7.24.94.15 3.9.93 7.74 1.05 11.65 1.59 0 3.19 0 4.81.02-.14 18.85.01 37.7-.03 56.56 6.46.03 12.93.21 19.39-.02.3-54.19 1.22-108.37 1.52-162.56 8.66.14 17.3.61 25.96.78 5.9.02 10.76 4.29 14.18 8.72 6.23 8.68 8.58 19.39 10.51 29.7 4.02 24.37 4.49 49.16 8.36 73.55 2.33 14.36 5.62 28.92 13.05 41.6.81-.48 1.62-.97 2.44-1.44-.23-26.48.02-52.97-.05-79.46 7.46-.01 14.92-.01 22.39.01.04-32.97.01-65.93.01-98.9-.04-1.34.17-2.76 1.32-3.61 3.44-3.19 6.7-6.6 10.32-9.57 2.12-.91 4.62-.31 6.9-.47 3-16.76 5.68-33.59 8.71-50.34.08-2.6 1.91-.13 1.73.99 2.88 16.13 5.96 32.23 8.7 48.39-.71-.59-2.11-1.77-2.81-2.36.22.59.66 1.75.88 2.33 4.98 1.45 10.19.97 15.32 1.01 15.44 0 30.88 0 46.33-.01.04-7.07.04-14.13-.01-21.2 3.64-.08 7.28-.09 10.92-.06.04 7.1-.05 14.2.06 21.3 3.25-.04 6.5-.04 9.76.01-.03 123.66.01 247.33-.02 371 6.68.06 13.36-.02 20.05.06 6.49-5.67 12.67-11.7 19.14-17.41.09-58.28.05-116.55.01-174.83 1.48-.09 2.97-.17 4.47-.25-.06-63.92-.07-127.84.01-191.76-1.22-.09-2.42-.18-3.62-.26.01-11.87.1-23.74-.04-35.6-7.27-1.13-14.86-2.24-21.27-6.07-2.29-1.28-4.29-4.38-2.3-6.78 2.82-3.34 7.27-4.57 11.3-5.8 11.45-3 23.38-3.76 35.18-3.69 11.4.16 22.95 1.03 33.92 4.33 3.57 1.27 7.78 2.58 9.71 6.14 1.11 2.73-1.51 5.09-3.66 6.29-6.64 3.55-14.23 4.65-21.58 5.74-.02 11.84 0 23.68-.01 35.52-.87.02-2.59.07-3.45.09.01 63.99-.03 127.98 0 191.97 15.26-.04 30.53.14 45.79-.09.02-31.95-.27-63.94.21-95.87 3.81-7.34 8.71-14.1 12.9-21.24 5.42-8.34 10.05-17.17 15.87-25.25 6.43-.75 12.97-.07 19.46-.31.07-10.7.32-21.4.29-32.1 7.18-.34 14.39.21 21.57-.26 3.68-5.41 6.66-11.38 9.7-17.19.81-8.17.09-16.47.33-24.69 0-31.05-.01-62.09.01-93.14 3.99-.01 8-.02 12.01-.01 0-1.78.01-3.56.05-5.34.84.03 1.7.06 2.58.1-4.28-3.06-1.97-8.42.44-11.88-1.06-1.34-2.07-2.71-3.03-4.1 1.41.85 2.76 1.79 4.14 2.73 2.72-2.01 6.61-5.14 9.93-2.47 2.62 3.22.1 7.39-1.51 10.47 1.68 1.67 3.25 3.51 5.27 4.8 1.72.54 3.57.31 5.38.45-.03 1.73-.02 3.47-.02 5.21 14.13.17 28.27-.19 42.4.18-.1 3.57-.13 7.14-.05 10.71 3.78-3.25 6.83-7.26 10.68-10.43 4.25-1.02 8.8-.21 13.17-.43-.04 2.53-.07 5.07-.11 7.61.53.23 1.6.71 2.13.95 1.62 4.09 4.34 8.01 4.03 12.61-.13 37.96.07 75.93-.1 113.89 6.85.25 13.7.1 20.56.11.07-116.34-.15-232.7.12-349.03m-110.99 208.67c1.9-.1 3.82-.13 5.75-.13.05-1.16.11-2.32.19-3.48-1.86 1.4-3.83 2.65-5.94 3.61m-.06 22.34c.03 16.48-.05 32.95.04 49.43 2.26-2.76 4.71-5.41 6.62-8.43.51-11.2-.19-22.44.35-33.63 8.7.16 17.41-.04 26.12.11 2.08-2.4 4.06-4.9 5.94-7.47-13.02-.06-26.05-.03-39.07-.01m-312.87 84.94c.02 3.33 3.03-1.39 0 0m-.7 3.05c.16 3.32 2.97-1.59 0 0m-1.52 3.47c1.07 1.43 2.6 2.5 4.4 1.35-.77-1.91-2.69-2.17-4.4-1.35m7.08-.03c-.93 1.17-.7 1.84.7 2.01.91-1.17.68-1.84-.7-2.01m-7.89 4.98c1.39.8 2.81 2.33 4.49 1.18.83-2.84-3.06-2.59-4.49-1.18m7.98-.34c-.52 1.65.02 2.22 1.62 1.73.5-1.66-.04-2.23-1.62-1.73m-8.55 5.25c.95.99 1.86 1.99 2.83 2.98.8-.89 1.61-1.77 2.42-2.66-.63-.63-1.25-1.26-1.87-1.89-1.14.52-2.27 1.04-3.38 1.57m9.7 2.15c1.34-.24 1.57-.97.71-2.18-1.35.22-1.58.95-.71 2.18m-5.42 1.95c1 .8 2.02 1.61 3.04 2.41-.05-1.47-.08-2.93-.11-4.4-1.01.64-1.95 1.34-2.93 1.99m4.24-.29c-1.59 2.95 3.31.19 0 0m1105.3 1.47c1.92.63 4.27.78 6.2.01-1.08-1.45-5.14-1.38-6.2-.01m14.85-.44c.24 1.3.99 1.53 2.26.7-.3-1.31-1.05-1.54-2.26-.7m-1129.7 3.32c1.2 1.02 2.81-.96 2.22-2.14-1.14-.77-3.3.93-2.22 2.14m12.59-1.23c-1.89 2.75 3.29.57 0 0m1099.8 1.22c3.06.46 6.24.89 9.29-.06-3-1.35-6.3-1.03-9.29.06m18.26-.36c-.03 1.44 2.43 1.4 3.3.66-.14-1.33-2.51-1.43-3.3-.66m-1132 1.31c-1.21.7-.21 3.29 1.06 1.98 1.03-.75.25-3.12-1.06-1.98m5.41 1.96c1.05 1.67 2.87 1.98 4.73 2.07-.1-1.42-.19-2.84-.28-4.25-1.49.72-2.98 1.44-4.45 2.18m1121.6-2.1c-1.75.21-.9 2.59.63 1.93 1.67-.24.79-2.59-.63-1.93m-15.47 2.2c3.8 1.02 7.92 2.19 11.63.15-3.67-1.88-7.83-.93-11.63-.15m18.5-1.22c.55.48.55.48 0 0m-1118.4 1c-1.58 2.98 3.34.2 0 0m1120.2-.23c1.58 2.12 4.28 2.54 6.05.4-2.01-.42-4.06-.71-6.05-.4m-3.69 1.55c-2.13.39-4.25.71-6.35.98 2.55.74 5.14 1.36 7.77 1.92l-.35-1.36c.85.16 2.54.46 3.38.62.63-2.51-2.08-1.12-3.37-1.07-.27-.27-.81-.81-1.08-1.09m-18.81 2.98c.05.43.13 1.31.17 1.74-2.25-.43-5.29-1.52-5.9 1.56 5.06.01 9.42-3 14.07-4.64-2.76.6-5.56 1.02-8.34 1.34m27.76-.37c-.65 1.65 3.27 3.06 3.7 1.19-.71-1.19-2.49-1.69-3.7-1.19m-17.65 3.48c5.51.32 11.02-.44 16.54.05-5.14-2.44-11.25-1.58-16.54-.05m-1578.8 3.64c-1.52 2.98 3.33.23 0 0m2.39 2.93c.46.59.46.59 0 0m450.88 5.97c-.02 2.01-.04 4.03-.02 6.05 2.14-1.84 4.14-3.84 5.99-5.97 3.45 1.03 6.71 2.57 10.01 4 1.58-1.19 3.4-1.65 5.29-.86-.16 1.48-.48 3.37 1.41 3.87.13-2.35.13-4.71.08-7.06-5.36-1.94-10.48-4.51-15.88-6.32-2.78 1.44-4.57 4.24-6.88 6.29m-451.16-2.94c-1.58 2.99 3.29.23 0 0m-2.61 1.97c-.58 1.61-.04 2.16 1.61 1.65.56-1.63.02-2.18-1.61-1.65m5.82.95c.48.55.48.55 0 0m-7.81 4.13c-.24 1.81-1.46 4.85 1.55 4.63-.41-1.58-.82-3.15-1.21-4.71 2.17 1.11 4 2.78 6.24 3.78-1.02-1.86-2.42-3.49-3.95-4.93-.89.38-1.77.79-2.63 1.23m455.72 9.56c.01 2.05.03 4.11.05 6.16 2.1-1.99 4.14-4.03 6.12-6.14 5.63 2.06 11.07 4.62 16.7 6.7-.02-2.22-.03-4.43-.04-6.64-5.42-2.23-10.84-4.44-16.23-6.69-2.23 2.18-4.44 4.38-6.6 6.61m-453.92-3.69c.49.56.49.56 0 0m1.65 2.28c.89.86 1.79 1.73 2.69 2.6-.4.49-1.19 1.46-1.58 1.94.59 1.51 1.15 3.07 2.2 4.34-.06-3.7-.33-7.39-.49-11.07-.95.72-1.89 1.46-2.82 2.19m4.24-.3c-1.56 2.97 3.31.19 0 0m-9.07 2.59c1.57 1.94 3.98 3.02 5.68.52-.49-.63-1.48-1.88-1.97-2.51-1.25.65-2.48 1.32-3.71 1.99m11.02-.64c-1.53.39-.75 3.13.76 2.72 1.41-.55.76-3.01-.76-2.72m-1.96 3.24c-.87 1.22-.63 1.94.72 2.15.85-1.24.61-1.95-.72-2.15m-9.39 4.04c1.11.85 2.2 1.72 3.44 2.4 1.32-.04 2.48-.82 3.72-1.23-1.2-1.23-2.25-2.86-3.94-3.42-1.14.65-2.17 1.47-3.22 2.25m11.57-1.55c-.77 1.52-1.27 4.36 1.38 3.93.9-1.59-.03-3.06-1.38-3.93m445.95 7.48c-.06 2.08-.07 4.15-.04 6.23 2.2-1.98 4.26-4.1 6.45-6.09 5.39 2.39 10.88 4.59 16.37 6.79.01-2.3-.04-4.6-.19-6.89-5.39-1.79-10.45-4.42-15.81-6.23-2.68 1.39-4.43 4.27-6.78 6.19m-458.48.69c1.42 1.21 2.87 2.4 4.33 3.59 1.71-.85 3.4-1.73 5.09-2.64-1.58-1.29-3.25-2.45-4.99-3.48-1.47.86-2.96 1.69-4.43 2.53m13.51-1.87c-.63.94-1.29 1.88-1.81 2.89.68.97 1.5 1.86 2.29 2.77.6-.99 1.2-1.98 1.81-2.97-.78-.9-1.52-1.8-2.29-2.69m-13.95 9.38c-.55 2 2.58 2.45 3.71 3.64 1.65-.92 3.31-1.81 4.99-2.68-1.18-1.23-2.33-2.6-3.93-3.29-1.69.55-3.28 1.37-4.77 2.33m13.15.7c.95.93 1.53 2.9 3.2 2.64.44-.77.86-1.54 1.27-2.33-.98-.88-1.94-1.75-2.89-2.63-.4.58-1.19 1.74-1.58 2.32m-16.42 8.52c2.14 1.76 4.28 3.52 6.37 5.34 2.68-1.22 5.28-2.63 7.81-4.13-2.36-1.82-4.8-3.53-7.24-5.22-2.37 1.24-4.68 2.59-6.94 4.01m19.14-3.08c-.93 1.47-1.86 2.94-2.78 4.41 1.24 1.41 2.5 2.81 3.76 4.22.98-1.46 1.9-2.96 2.83-4.45-1.17-1.49-2.42-2.9-3.81-4.18m-20.95 14.37c2.49 2.11 5.14 4 7.76 5.95 2.71-1.37 5.44-2.74 7.93-4.5-2.59-1.92-5.06-3.98-7.62-5.92-2.66 1.56-5.37 3-8.07 4.47m22.13-3.32c-.88 1.76-1.76 3.52-2.66 5.27 1.31 1.48 2.7 2.91 4.14 4.28 1.03-1.73 2.05-3.47 3.08-5.2-1.39-1.59-2.86-3.1-4.56-4.35m-4.69 7.28c-1.3 2.18-2.56 4.4-3.76 6.64 1.46.97 2.92 1.95 4.4 2.92-.1-3.2-.3-6.39-.64-9.56m1.63 1.05c-.04 2.54.01 5.08 0 7.62 1.04.13 2.08.26 3.12.41.31 2.91 1.39 5.69 3.03 8.12 1.19-2.4 2.54-4.72 3.54-7.19-1.34-2.18-3.34-3.83-5.16-5.57-.72 1.44-1.41 2.89-2.07 4.35-1.09-2.49-1.66-5.16-2.46-7.74m-21.32 7.74c3.14 2.68 6.35 5.28 9.45 8.01 2.05-3.07 3.99-6.22 5.74-9.48-1.78-1.28-3.54-2.58-5.3-3.87-3.3 1.78-6.66 3.44-9.89 5.34m1240.3 2.31c.12 9.63.02 19.27.06 28.91.2 12.62-.99 25.25 0 37.86.67.05 1.99.13 2.66.18.02-22.38-.15-44.76.6-67.13-.83.04-2.49.13-3.32.18m84.5.22c2.9 3.39 6.63 5.92 9.95 8.88 9.04 7.65 18.1 15.28 27.15 22.92.01 12.92-.02 25.85.01 38.77 2.63.06 5.28.14 7.94.25.11 27.85-.21 55.71.17 83.55 13.25 4.19 26.41 8.7 39.63 13.03.12-55.9-.09-111.75.09-167.65-16.57-.2-33.14-.03-49.7-.09-11.75.21-23.53-.43-35.24.34m139.45-.27c.12 26.85-.01 53.71.07 80.56 9.49.08 19.01-.23 28.5.16-.16 9.21-.03 18.41-.06 27.62 21.6.11 43.21 0 64.82.04-.02 23.33.07 46.67-.05 70.01 4.13.19 8.26.06 12.41.18.4-5.89.1-11.79.2-17.68-.01-53.65.01-107.3-.01-160.95-35.29.02-70.59-.09-105.88.06m-1453.3 6.9c3.42 2.9 6.77 5.88 10.38 8.54-.15-4.79-.57-9.55-.76-14.33-3.26 1.83-6.45 3.79-9.62 5.79m10.9-4.66c.14 3.97.37 7.94.7 11.9 1.95-1.69 2.79-4.22 4.04-6.39-1.4-1.99-2.97-3.85-4.74-5.51m-24.89 13.03c.74.87 1.41 1.8 2.17 2.69.94-1.11 2.26-1.56 3.68-1.61 1.94-2.24 3.16-5.02 4.88-7.42-3.6 2.06-7.08 4.35-10.73 6.34m35.29 5.6c.71-1.3 1.43-2.6 2.13-3.9-1.96-2.45-3.91-4.9-6.1-7.14 1.2 3.72 2.66 7.35 3.97 11.04m-36.07-4.23c-.54 4.19-2.13 8.39-1.18 12.64 1.78-2.68 3.71-5.31 4.99-8.29-.43-2.03-2.4-3.07-3.81-4.35m12.24 7.99c-.05.2-.16.62-.22.83 1.85 1.78 3.88 3.36 5.79 5.07 2.77.04 5.56.04 8.34.01-.25-4.17-.52-8.34-.75-12.52-4.39 2.2-8.84 4.28-13.16 6.61m14.52-5.74c.09 1.6.2 3.21.27 4.83.5-1.2 1.37-2.04 2.68-2.32-.99-.84-1.98-1.67-2.95-2.51m3.53 7.7c-.81-.19-2.45-.58-3.27-.77.09 1.55.19 3.11.29 4.67 1.3.04 2.6.05 3.92.1-.33-3.19 1.34-.92 2.26-.5 1.31.89 3.04.37 4.53.55-1.12-1.82-2.63-3.33-4.59-4.19-.1-3.18-2.43-1.92-3.14.14m-29.61 4c5.06-.02 10.11-.06 15.17.02-1.78-1.84-3.69-3.55-5.76-5.05-3.11 1.72-6.36 3.19-9.41 5.03m38.9-1.91c-.36 1.59.28 2.19 1.91 1.81.36-1.6-.28-2.2-1.91-1.81m287.52 23.44c.52.53.52.53 0 0m-579.87 90.84c.18 24.3.02 48.6.08 72.9.1.29.3.87.4 1.17 14.59.24 29.2.07 43.8.17-7.9-18.3-16.27-36.4-24.29-54.65-1.15-3.14-1-6.93-3.6-9.39-4.56-4.72-11.31-6.16-16.39-10.2z" fill="#06050c"/></svg><path d="m0 0h1184v864h-1184z" fill="url(#c)"/><path d="M1388 1013H1311Q1280 1104 1211.5 1208.0Q1143 1312 1085 1320Q1053 1324 1006.0 1327.0Q959 1330 925 1330H878V217Q878 181 891.0 153.5Q904 126 942 110Q965 101 1013.5 91.5Q1062 82 1096 78V0H305V78Q334 81 386.5 86.5Q439 92 458 100Q497 116 510.0 143.0Q523 170 523 207V1330H476Q442 1330 395.0 1327.0Q348 1324 316 1320Q258 1312 189.5 1208.0Q121 1104 90 1013H13V1419H1388Z M3202 0H2435V78Q2460 80 2508.0 84.0Q2556 88 2574 96Q2611 111 2625.0 135.5Q2639 160 2639 198V687H2033V209Q2033 175 2047.5 148.0Q2062 121 2097 106Q2116 98 2162.0 89.0Q2208 80 2237 78V0H1470V78Q1495 79 1543.5 84.5Q1592 90 1614 98Q1650 111 1664.0 137.5Q1678 164 1678 200V1204Q1678 1239 1665.5 1263.0Q1653 1287 1614 1305Q1585 1318 1538.0 1328.5Q1491 1339 1470 1341V1419H2237V1341Q2206 1339 2163.0 1331.0Q2120 1323 2097 1316Q2058 1303 2045.5 1274.5Q2033 1246 2033 1214V790H2639V1204Q2639 1239 2626.0 1263.0Q2613 1287 2574 1305Q2548 1317 2504.5 1327.5Q2461 1338 2435 1341V1419H3202V1341Q3170 1339 3130.0 1332.5Q3090 1326 3058 1316Q3020 1303 3007.0 1275.0Q2994 1247 2994 1214V209Q2994 173 3007.0 148.0Q3020 123 3058 106Q3082 96 3127.5 88.0Q3173 80 3202 78Z M4598 1057H4522Q4493 1138 4422.0 1221.0Q4351 1304 4281 1319Q4251 1326 4197.5 1327.5Q4144 1329 4109 1329H3903V781H4049Q4104 781 4149.0 794.0Q4194 807 4231 844Q4254 867 4277.5 925.0Q4301 983 4308 1026H4384V434H4308Q4302 476 4277.5 539.5Q4253 603 4231 627Q4198 663 4153.0 676.5Q4108 690 4049 690H3903V281Q3903 217 3912.5 179.5Q3922 142 3948 122Q3973 103 4016.5 97.0Q4060 91 4135 91Q4170 91 4219.0 92.0Q4268 93 4305 98Q4347 103 4383.5 113.0Q4420 123 4438 142Q4486 191 4546.0 291.5Q4606 392 4625 442H4698L4671 0H3340V78Q3368 80 3416.0 86.0Q3464 92 3484 100Q3522 116 3535.0 140.5Q3548 165 3548 203V1204Q3548 1240 3537.0 1263.5Q3526 1287 3484 1306Q3458 1318 3411.0 1328.0Q3364 1338 3340 1341V1419H4598Z M6967 1341Q6939 1338 6887.0 1330.0Q6835 1322 6793 1291Q6756 1264 6740.5 1198.5Q6725 1133 6725 1006V-8H6547L5663 1089V423Q5663 299 5679.5 234.5Q5696 170 5733 140Q5760 118 5819.0 101.0Q5878 84 5913 78V0H5303V78Q5342 81 5392.5 92.5Q5443 104 5477 128Q5516 157 5530.5 215.5Q5545 274 5545 412V1084Q5545 1134 5529.5 1178.5Q5514 1223 5481 1255Q5446 1289 5400.5 1308.5Q5355 1328 5297 1339V1419H5831L6607 459V996Q6607 1124 6590.0 1186.5Q6573 1249 6536 1279Q6507 1302 6450.0 1318.5Q6393 1335 6358 1341V1419H6967Z M8314 1057H8238Q8209 1138 8138.0 1221.0Q8067 1304 7997 1319Q7967 1326 7913.5 1327.5Q7860 1329 7825 1329H7619V781H7765Q7820 781 7865.0 794.0Q7910 807 7947 844Q7970 867 7993.5 925.0Q8017 983 8024 1026H8100V434H8024Q8018 476 7993.5 539.5Q7969 603 7947 627Q7914 663 7869.0 676.5Q7824 690 7765 690H7619V281Q7619 217 7628.5 179.5Q7638 142 7664 122Q7689 103 7732.5 97.0Q7776 91 7851 91Q7886 91 7935.0 92.0Q7984 93 8021 98Q8063 103 8099.5 113.0Q8136 123 8154 142Q8202 191 8262.0 291.5Q8322 392 8341 442H8414L8387 0H7056V78Q7084 80 7132.0 86.0Q7180 92 7200 100Q7238 116 7251.0 140.5Q7264 165 7264 203V1204Q7264 1240 7253.0 1263.5Q7242 1287 7200 1306Q7174 1318 7127.0 1328.0Q7080 1338 7056 1341V1419H8314Z M10809 1339Q10778 1336 10747.0 1325.5Q10716 1315 10686 1299Q10640 1273 10620.5 1242.0Q10601 1211 10585 1167Q10530 1015 10415.5 680.0Q10301 345 10177 -16H9976L9601 1039L9263 -16H9062Q8895 470 8806.0 732.5Q8717 995 8656 1173Q8637 1227 8613.0 1251.5Q8589 1276 8551 1301Q8524 1319 8493.5 1327.5Q8463 1336 8423 1341V1419H9180V1343Q9113 1335 9080.0 1327.5Q9047 1320 9028 1312Q9010 1304 9006.0 1295.0Q9002 1286 9002 1279Q9002 1265 9005.5 1252.0Q9009 1239 9013 1222Q9037 1144 9110.0 926.0Q9183 708 9290 385L9613 1419H9825L10200 353Q10283 610 10332.5 773.0Q10382 936 10416 1052Q10436 1123 10448.0 1171.0Q10460 1219 10460 1254Q10460 1275 10440.5 1290.0Q10421 1305 10388 1316Q10360 1325 10315.5 1330.5Q10271 1336 10238 1339V1419H10809Z M12690 1064Q12690 944 12640.5 857.5Q12591 771 12504 717Q12414 661 12298.5 636.0Q12183 611 12039 611H11923V212Q11923 176 11936.5 149.5Q11950 123 11988 107Q12008 99 12053.0 90.0Q12098 81 12129 78V0H11360V78Q11389 81 11437.0 86.5Q11485 92 11504 100Q11543 116 11555.5 139.0Q11568 162 11568 203V1204Q11568 1239 11556.0 1264.5Q11544 1290 11504 1307Q11476 1319 11429.5 1328.5Q11383 1338 11360 1341V1419H12143Q12418 1419 12554.0 1331.5Q12690 1244 12690 1064ZM12300 1013Q12300 1173 12235.5 1250.5Q12171 1328 12006 1328H11923V705H11965Q12129 705 12214.5 780.5Q12300 856 12300 1013Z M14107 1261Q14212 1165 14273.5 1029.0Q14335 893 14335 719Q14335 564 14283.0 424.0Q14231 284 14133 183Q14030 78 13891.0 19.5Q13752 -39 13560 -39Q13405 -39 13267.0 12.0Q13129 63 13024 160Q12920 255 12859.0 391.0Q12798 527 12798 694Q12798 868 12857.5 1009.5Q12917 1151 13021 1252Q13124 1351 13265.5 1404.5Q13407 1458 13567 1458Q13726 1458 13865.5 1406.0Q14005 1354 14107 1261ZM13850 246Q13895 337 13915.0 452.0Q13935 567 13935 712Q13935 835 13917.5 951.5Q13900 1068 13858 1159Q13815 1250 13744.0 1305.0Q13673 1360 13567 1360Q13386 1360 13292.0 1188.5Q13198 1017 13198 704Q13198 571 13218.5 453.0Q13239 335 13283 247Q13328 158 13397.0 108.5Q13466 59 13567 59Q13666 59 13737.0 109.0Q13808 159 13850 246Z M15810 455 15782 0H14475V78Q14510 81 14557.0 87.5Q14604 94 14619 100Q14655 114 14669.0 139.0Q14683 164 14683 203V1204Q14683 1240 14672.0 1263.5Q14661 1287 14619 1306Q14588 1320 14544.5 1328.5Q14501 1337 14475 1341V1419H15254V1341Q15222 1338 15178.5 1332.5Q15135 1327 15103 1317Q15064 1304 15051.0 1276.5Q15038 1249 15038 1214V281Q15038 215 15047.0 177.0Q15056 139 15082 121Q15108 102 15154.5 96.5Q15201 91 15283 91Q15363 91 15438.5 100.5Q15514 110 15547 142Q15598 193 15651.5 285.5Q15705 378 15737 455Z M16660 0H15873V78Q15900 80 15952.5 84.0Q16005 88 16025 96Q16062 111 16075.5 135.5Q16089 160 16089 198V1204Q16089 1238 16076.0 1264.0Q16063 1290 16025 1306Q16001 1316 15954.0 1326.5Q15907 1337 15873 1341V1419H16660V1341Q16630 1338 16585.0 1332.5Q16540 1327 16509 1317Q16470 1304 16457.0 1276.5Q16444 1249 16444 1214V209Q16444 173 16457.5 147.5Q16471 122 16509 106Q16530 97 16578.5 88.5Q16627 80 16660 78Z M17387 -38Q17257 -38 17144.5 -6.0Q17032 26 16954 70L16885 0H16800L16787 513H16873Q16902 440 16947.0 359.0Q16992 278 17051 214Q17112 147 17187.5 105.0Q17263 63 17364 63Q17500 63 17572.5 129.5Q17645 196 17645 297Q17645 380 17583.5 436.5Q17522 493 17393 534Q17309 561 17238.5 584.0Q17168 607 17106 631Q16963 688 16893.5 794.0Q16824 900 16824 1031Q16824 1114 16860.0 1190.5Q16896 1267 16965 1328Q17031 1385 17134.0 1421.0Q17237 1457 17358 1457Q17476 1457 17579.0 1424.5Q17682 1392 17741 1359L17802 1419H17889L17897 935H17811Q17781 1013 17740.5 1094.5Q17700 1176 17655 1230Q17606 1288 17542.0 1322.5Q17478 1357 17392 1357Q17284 1357 17215.5 1296.0Q17147 1235 17147 1145Q17147 1060 17206.5 1006.0Q17266 952 17392 911Q17466 886 17543.0 861.0Q17620 836 17680 813Q17825 757 17900.5 658.5Q17976 560 17976 414Q17976 322 17933.0 236.0Q17890 150 17817 93Q17737 30 17632.0 -4.0Q17527 -38 17387 -38Z M19738 1341Q19698 1336 19670.0 1331.0Q19642 1326 19607 1317Q19566 1306 19554.5 1278.0Q19543 1250 19543 1214V432Q19543 324 19499.5 234.0Q19456 144 19380 83Q19303 23 19208.0 -7.5Q19113 -38 19005 -38Q18818 -38 18703.5 52.0Q18589 142 18589 299Q18589 392 18641.5 453.0Q18694 514 18786 514Q18873 514 18924.5 463.0Q18976 412 18976 337Q18976 273 18931.5 218.5Q18887 164 18830 118V105Q18839 85 18869.0 71.0Q18899 57 18930 57Q19050 57 19118.5 143.0Q19187 229 19187 403V1204Q19187 1240 19176.0 1264.0Q19165 1288 19123 1306Q19093 1319 19050.5 1328.0Q19008 1337 18980 1341V1419H19738Z M21171 1261Q21276 1165 21337.5 1029.0Q21399 893 21399 719Q21399 564 21347.0 424.0Q21295 284 21197 183Q21094 78 20955.0 19.5Q20816 -39 20624 -39Q20469 -39 20331.0 12.0Q20193 63 20088 160Q19984 255 19923.0 391.0Q19862 527 19862 694Q19862 868 19921.5 1009.5Q19981 1151 20085 1252Q20188 1351 20329.5 1404.5Q20471 1458 20631 1458Q20790 1458 20929.5 1406.0Q21069 1354 21171 1261ZM20914 246Q20959 337 20979.0 452.0Q20999 567 20999 712Q20999 835 20981.5 951.5Q20964 1068 20922 1159Q20879 1250 20808.0 1305.0Q20737 1360 20631 1360Q20450 1360 20356.0 1188.5Q20262 1017 20262 704Q20262 571 20282.5 453.0Q20303 335 20347 247Q20392 158 20461.0 108.5Q20530 59 20631 59Q20730 59 20801.0 109.0Q20872 159 20914 246Z M23173 1341Q23144 1338 23089.5 1327.5Q23035 1317 22998 1291Q22960 1266 22944.5 1201.0Q22929 1136 22929 1006V478Q22929 245 22771.0 103.0Q22613 -39 22353 -39Q22050 -39 21884.0 98.0Q21718 235 21718 480V1206Q21718 1241 21704.5 1266.0Q21691 1291 21653 1311Q21627 1324 21589.0 1332.0Q21551 1340 21527 1343V1419H22271V1343Q22239 1341 22206.0 1335.5Q22173 1330 22139 1319Q22101 1307 22088.0 1279.0Q22075 1251 22075 1216V500Q22075 289 22168.0 193.0Q22261 97 22438 97Q22612 97 22711.0 203.0Q22810 309 22810 515V996Q22810 1124 22792.5 1187.5Q22775 1251 22739 1279Q22713 1301 22648.5 1319.0Q22584 1337 22558 1341V1419H23173Z M24875 0H24331Q24190 216 24096.5 344.0Q24003 472 23864 640H23809V209Q23809 173 23822.5 148.0Q23836 123 23874 106Q23893 98 23933.5 89.5Q23974 81 24003 78V0H23246V78Q23275 81 23322.5 86.5Q23370 92 23390 100Q23428 116 23441.0 140.5Q23454 165 23454 203V1204Q23454 1240 23443.0 1264.0Q23432 1288 23390 1306Q23358 1319 23314.5 1328.0Q23271 1337 23246 1341V1419H24042Q24309 1419 24447.5 1335.5Q24586 1252 24586 1083Q24586 934 24500.5 843.5Q24415 753 24240 702Q24308 614 24398.5 498.0Q24489 382 24587 261Q24618 222 24671.5 165.5Q24725 109 24766 96Q24789 89 24824.5 84.0Q24860 79 24875 78ZM24194 1055Q24194 1197 24114.5 1262.5Q24035 1328 23888 1328H23809V734H23885Q24032 734 24113.0 811.0Q24194 888 24194 1055Z M26509 1341Q26481 1338 26429.0 1330.0Q26377 1322 26335 1291Q26298 1264 26282.5 1198.5Q26267 1133 26267 1006V-8H26089L25205 1089V423Q25205 299 25221.5 234.5Q25238 170 25275 140Q25302 118 25361.0 101.0Q25420 84 25455 78V0H24845V78Q24884 81 24934.5 92.5Q24985 104 25019 128Q25058 157 25072.5 215.5Q25087 274 25087 412V1084Q25087 1134 25071.5 1178.5Q25056 1223 25023 1255Q24988 1289 24942.5 1308.5Q24897 1328 24839 1339V1419H25373L26149 459V996Q26149 1124 26132.0 1186.5Q26115 1249 26078 1279Q26049 1302 25992.0 1318.5Q25935 1335 25900 1341V1419H26509Z M28138 0H27365V78Q27419 82 27492.0 97.5Q27565 113 27565 136Q27565 144 27563.5 154.0Q27562 164 27555 181L27434 475H26944Q26927 434 26906.5 379.0Q26886 324 26871 281Q26852 225 26848.5 200.0Q26845 175 26845 165Q26845 133 26893.5 110.5Q26942 88 27055 78V0H26473V78Q26506 80 26547.5 88.5Q26589 97 26613 112Q26654 136 26682.5 171.0Q26711 206 26730 254Q26846 535 26962.5 817.0Q27079 1099 27220 1439H27420Q27616 957 27727.0 677.0Q27838 397 27916 213Q27929 183 27949.0 158.5Q27969 134 28006 112Q28034 96 28071.0 88.0Q28108 80 28138 78ZM27393 574 27187 1088 26984 574Z M29486 455 29458 0H28151V78Q28186 81 28233.0 87.5Q28280 94 28295 100Q28331 114 28345.0 139.0Q28359 164 28359 203V1204Q28359 1240 28348.0 1263.5Q28337 1287 28295 1306Q28264 1320 28220.5 1328.5Q28177 1337 28151 1341V1419H28930V1341Q28898 1338 28854.5 1332.5Q28811 1327 28779 1317Q28740 1304 28727.0 1276.5Q28714 1249 28714 1214V281Q28714 215 28723.0 177.0Q28732 139 28758 121Q28784 102 28830.5 96.5Q28877 91 28959 91Q29039 91 29114.5 100.5Q29190 110 29223 142Q29274 193 29327.5 285.5Q29381 378 29413 455Z" fill="#000" opacity=".5" transform="translate(62.00,456) scale(0.03595,-0.03595)"/><path d="M1388 1013H1311Q1280 1104 1211.5 1208.0Q1143 1312 1085 1320Q1053 1324 1006.0 1327.0Q959 1330 925 1330H878V217Q878 181 891.0 153.5Q904 126 942 110Q965 101 1013.5 91.5Q1062 82 1096 78V0H305V78Q334 81 386.5 86.5Q439 92 458 100Q497 116 510.0 143.0Q523 170 523 207V1330H476Q442 1330 395.0 1327.0Q348 1324 316 1320Q258 1312 189.5 1208.0Q121 1104 90 1013H13V1419H1388Z M3202 0H2435V78Q2460 80 2508.0 84.0Q2556 88 2574 96Q2611 111 2625.0 135.5Q2639 160 2639 198V687H2033V209Q2033 175 2047.5 148.0Q2062 121 2097 106Q2116 98 2162.0 89.0Q2208 80 2237 78V0H1470V78Q1495 79 1543.5 84.5Q1592 90 1614 98Q1650 111 1664.0 137.5Q1678 164 1678 200V1204Q1678 1239 1665.5 1263.0Q1653 1287 1614 1305Q1585 1318 1538.0 1328.5Q1491 1339 1470 1341V1419H2237V1341Q2206 1339 2163.0 1331.0Q2120 1323 2097 1316Q2058 1303 2045.5 1274.5Q2033 1246 2033 1214V790H2639V1204Q2639 1239 2626.0 1263.0Q2613 1287 2574 1305Q2548 1317 2504.5 1327.5Q2461 1338 2435 1341V1419H3202V1341Q3170 1339 3130.0 1332.5Q3090 1326 3058 1316Q3020 1303 3007.0 1275.0Q2994 1247 2994 1214V209Q2994 173 3007.0 148.0Q3020 123 3058 106Q3082 96 3127.5 88.0Q3173 80 3202 78Z M4598 1057H4522Q4493 1138 4422.0 1221.0Q4351 1304 4281 1319Q4251 1326 4197.5 1327.5Q4144 1329 4109 1329H3903V781H4049Q4104 781 4149.0 794.0Q4194 807 4231 844Q4254 867 4277.5 925.0Q4301 983 4308 1026H4384V434H4308Q4302 476 4277.5 539.5Q4253 603 4231 627Q4198 663 4153.0 676.5Q4108 690 4049 690H3903V281Q3903 217 3912.5 179.5Q3922 142 3948 122Q3973 103 4016.5 97.0Q4060 91 4135 91Q4170 91 4219.0 92.0Q4268 93 4305 98Q4347 103 4383.5 113.0Q4420 123 4438 142Q4486 191 4546.0 291.5Q4606 392 4625 442H4698L4671 0H3340V78Q3368 80 3416.0 86.0Q3464 92 3484 100Q3522 116 3535.0 140.5Q3548 165 3548 203V1204Q3548 1240 3537.0 1263.5Q3526 1287 3484 1306Q3458 1318 3411.0 1328.0Q3364 1338 3340 1341V1419H4598Z M6967 1341Q6939 1338 6887.0 1330.0Q6835 1322 6793 1291Q6756 1264 6740.5 1198.5Q6725 1133 6725 1006V-8H6547L5663 1089V423Q5663 299 5679.5 234.5Q5696 170 5733 140Q5760 118 5819.0 101.0Q5878 84 5913 78V0H5303V78Q5342 81 5392.5 92.5Q5443 104 5477 128Q5516 157 5530.5 215.5Q5545 274 5545 412V1084Q5545 1134 5529.5 1178.5Q5514 1223 5481 1255Q5446 1289 5400.5 1308.5Q5355 1328 5297 1339V1419H5831L6607 459V996Q6607 1124 6590.0 1186.5Q6573 1249 6536 1279Q6507 1302 6450.0 1318.5Q6393 1335 6358 1341V1419H6967Z M8314 1057H8238Q8209 1138 8138.0 1221.0Q8067 1304 7997 1319Q7967 1326 7913.5 1327.5Q7860 1329 7825 1329H7619V781H7765Q7820 781 7865.0 794.0Q7910 807 7947 844Q7970 867 7993.5 925.0Q8017 983 8024 1026H8100V434H8024Q8018 476 7993.5 539.5Q7969 603 7947 627Q7914 663 7869.0 676.5Q7824 690 7765 690H7619V281Q7619 217 7628.5 179.5Q7638 142 7664 122Q7689 103 7732.5 97.0Q7776 91 7851 91Q7886 91 7935.0 92.0Q7984 93 8021 98Q8063 103 8099.5 113.0Q8136 123 8154 142Q8202 191 8262.0 291.5Q8322 392 8341 442H8414L8387 0H7056V78Q7084 80 7132.0 86.0Q7180 92 7200 100Q7238 116 7251.0 140.5Q7264 165 7264 203V1204Q7264 1240 7253.0 1263.5Q7242 1287 7200 1306Q7174 1318 7127.0 1328.0Q7080 1338 7056 1341V1419H8314Z M10809 1339Q10778 1336 10747.0 1325.5Q10716 1315 10686 1299Q10640 1273 10620.5 1242.0Q10601 1211 10585 1167Q10530 1015 10415.5 680.0Q10301 345 10177 -16H9976L9601 1039L9263 -16H9062Q8895 470 8806.0 732.5Q8717 995 8656 1173Q8637 1227 8613.0 1251.5Q8589 1276 8551 1301Q8524 1319 8493.5 1327.5Q8463 1336 8423 1341V1419H9180V1343Q9113 1335 9080.0 1327.5Q9047 1320 9028 1312Q9010 1304 9006.0 1295.0Q9002 1286 9002 1279Q9002 1265 9005.5 1252.0Q9009 1239 9013 1222Q9037 1144 9110.0 926.0Q9183 708 9290 385L9613 1419H9825L10200 353Q10283 610 10332.5 773.0Q10382 936 10416 1052Q10436 1123 10448.0 1171.0Q10460 1219 10460 1254Q10460 1275 10440.5 1290.0Q10421 1305 10388 1316Q10360 1325 10315.5 1330.5Q10271 1336 10238 1339V1419H10809Z M12690 1064Q12690 944 12640.5 857.5Q12591 771 12504 717Q12414 661 12298.5 636.0Q12183 611 12039 611H11923V212Q11923 176 11936.5 149.5Q11950 123 11988 107Q12008 99 12053.0 90.0Q12098 81 12129 78V0H11360V78Q11389 81 11437.0 86.5Q11485 92 11504 100Q11543 116 11555.5 139.0Q11568 162 11568 203V1204Q11568 1239 11556.0 1264.5Q11544 1290 11504 1307Q11476 1319 11429.5 1328.5Q11383 1338 11360 1341V1419H12143Q12418 1419 12554.0 1331.5Q12690 1244 12690 1064ZM12300 1013Q12300 1173 12235.5 1250.5Q12171 1328 12006 1328H11923V705H11965Q12129 705 12214.5 780.5Q12300 856 12300 1013Z M14107 1261Q14212 1165 14273.5 1029.0Q14335 893 14335 719Q14335 564 14283.0 424.0Q14231 284 14133 183Q14030 78 13891.0 19.5Q13752 -39 13560 -39Q13405 -39 13267.0 12.0Q13129 63 13024 160Q12920 255 12859.0 391.0Q12798 527 12798 694Q12798 868 12857.5 1009.5Q12917 1151 13021 1252Q13124 1351 13265.5 1404.5Q13407 1458 13567 1458Q13726 1458 13865.5 1406.0Q14005 1354 14107 1261ZM13850 246Q13895 337 13915.0 452.0Q13935 567 13935 712Q13935 835 13917.5 951.5Q13900 1068 13858 1159Q13815 1250 13744.0 1305.0Q13673 1360 13567 1360Q13386 1360 13292.0 1188.5Q13198 1017 13198 704Q13198 571 13218.5 453.0Q13239 335 13283 247Q13328 158 13397.0 108.5Q13466 59 13567 59Q13666 59 13737.0 109.0Q13808 159 13850 246Z M15810 455 15782 0H14475V78Q14510 81 14557.0 87.5Q14604 94 14619 100Q14655 114 14669.0 139.0Q14683 164 14683 203V1204Q14683 1240 14672.0 1263.5Q14661 1287 14619 1306Q14588 1320 14544.5 1328.5Q14501 1337 14475 1341V1419H15254V1341Q15222 1338 15178.5 1332.5Q15135 1327 15103 1317Q15064 1304 15051.0 1276.5Q15038 1249 15038 1214V281Q15038 215 15047.0 177.0Q15056 139 15082 121Q15108 102 15154.5 96.5Q15201 91 15283 91Q15363 91 15438.5 100.5Q15514 110 15547 142Q15598 193 15651.5 285.5Q15705 378 15737 455Z M16660 0H15873V78Q15900 80 15952.5 84.0Q16005 88 16025 96Q16062 111 16075.5 135.5Q16089 160 16089 198V1204Q16089 1238 16076.0 1264.0Q16063 1290 16025 1306Q16001 1316 15954.0 1326.5Q15907 1337 15873 1341V1419H16660V1341Q16630 1338 16585.0 1332.5Q16540 1327 16509 1317Q16470 1304 16457.0 1276.5Q16444 1249 16444 1214V209Q16444 173 16457.5 147.5Q16471 122 16509 106Q16530 97 16578.5 88.5Q16627 80 16660 78Z M17387 -38Q17257 -38 17144.5 -6.0Q17032 26 16954 70L16885 0H16800L16787 513H16873Q16902 440 16947.0 359.0Q16992 278 17051 214Q17112 147 17187.5 105.0Q17263 63 17364 63Q17500 63 17572.5 129.5Q17645 196 17645 297Q17645 380 17583.5 436.5Q17522 493 17393 534Q17309 561 17238.5 584.0Q17168 607 17106 631Q16963 688 16893.5 794.0Q16824 900 16824 1031Q16824 1114 16860.0 1190.5Q16896 1267 16965 1328Q17031 1385 17134.0 1421.0Q17237 1457 17358 1457Q17476 1457 17579.0 1424.5Q17682 1392 17741 1359L17802 1419H17889L17897 935H17811Q17781 1013 17740.5 1094.5Q17700 1176 17655 1230Q17606 1288 17542.0 1322.5Q17478 1357 17392 1357Q17284 1357 17215.5 1296.0Q17147 1235 17147 1145Q17147 1060 17206.5 1006.0Q17266 952 17392 911Q17466 886 17543.0 861.0Q17620 836 17680 813Q17825 757 17900.5 658.5Q17976 560 17976 414Q17976 322 17933.0 236.0Q17890 150 17817 93Q17737 30 17632.0 -4.0Q17527 -38 17387 -38Z M19738 1341Q19698 1336 19670.0 1331.0Q19642 1326 19607 1317Q19566 1306 19554.5 1278.0Q19543 1250 19543 1214V432Q19543 324 19499.5 234.0Q19456 144 19380 83Q19303 23 19208.0 -7.5Q19113 -38 19005 -38Q18818 -38 18703.5 52.0Q18589 142 18589 299Q18589 392 18641.5 453.0Q18694 514 18786 514Q18873 514 18924.5 463.0Q18976 412 18976 337Q18976 273 18931.5 218.5Q18887 164 18830 118V105Q18839 85 18869.0 71.0Q18899 57 18930 57Q19050 57 19118.5 143.0Q19187 229 19187 403V1204Q19187 1240 19176.0 1264.0Q19165 1288 19123 1306Q19093 1319 19050.5 1328.0Q19008 1337 18980 1341V1419H19738Z M21171 1261Q21276 1165 21337.5 1029.0Q21399 893 21399 719Q21399 564 21347.0 424.0Q21295 284 21197 183Q21094 78 20955.0 19.5Q20816 -39 20624 -39Q20469 -39 20331.0 12.0Q20193 63 20088 160Q19984 255 19923.0 391.0Q19862 527 19862 694Q19862 868 19921.5 1009.5Q19981 1151 20085 1252Q20188 1351 20329.5 1404.5Q20471 1458 20631 1458Q20790 1458 20929.5 1406.0Q21069 1354 21171 1261ZM20914 246Q20959 337 20979.0 452.0Q20999 567 20999 712Q20999 835 20981.5 951.5Q20964 1068 20922 1159Q20879 1250 20808.0 1305.0Q20737 1360 20631 1360Q20450 1360 20356.0 1188.5Q20262 1017 20262 704Q20262 571 20282.5 453.0Q20303 335 20347 247Q20392 158 20461.0 108.5Q20530 59 20631 59Q20730 59 20801.0 109.0Q20872 159 20914 246Z M23173 1341Q23144 1338 23089.5 1327.5Q23035 1317 22998 1291Q22960 1266 22944.5 1201.0Q22929 1136 22929 1006V478Q22929 245 22771.0 103.0Q22613 -39 22353 -39Q22050 -39 21884.0 98.0Q21718 235 21718 480V1206Q21718 1241 21704.5 1266.0Q21691 1291 21653 1311Q21627 1324 21589.0 1332.0Q21551 1340 21527 1343V1419H22271V1343Q22239 1341 22206.0 1335.5Q22173 1330 22139 1319Q22101 1307 22088.0 1279.0Q22075 1251 22075 1216V500Q22075 289 22168.0 193.0Q22261 97 22438 97Q22612 97 22711.0 203.0Q22810 309 22810 515V996Q22810 1124 22792.5 1187.5Q22775 1251 22739 1279Q22713 1301 22648.5 1319.0Q22584 1337 22558 1341V1419H23173Z M24875 0H24331Q24190 216 24096.5 344.0Q24003 472 23864 640H23809V209Q23809 173 23822.5 148.0Q23836 123 23874 106Q23893 98 23933.5 89.5Q23974 81 24003 78V0H23246V78Q23275 81 23322.5 86.5Q23370 92 23390 100Q23428 116 23441.0 140.5Q23454 165 23454 203V1204Q23454 1240 23443.0 1264.0Q23432 1288 23390 1306Q23358 1319 23314.5 1328.0Q23271 1337 23246 1341V1419H24042Q24309 1419 24447.5 1335.5Q24586 1252 24586 1083Q24586 934 24500.5 843.5Q24415 753 24240 702Q24308 614 24398.5 498.0Q24489 382 24587 261Q24618 222 24671.5 165.5Q24725 109 24766 96Q24789 89 24824.5 84.0Q24860 79 24875 78ZM24194 1055Q24194 1197 24114.5 1262.5Q24035 1328 23888 1328H23809V734H23885Q24032 734 24113.0 811.0Q24194 888 24194 1055Z M26509 1341Q26481 1338 26429.0 1330.0Q26377 1322 26335 1291Q26298 1264 26282.5 1198.5Q26267 1133 26267 1006V-8H26089L25205 1089V423Q25205 299 25221.5 234.5Q25238 170 25275 140Q25302 118 25361.0 101.0Q25420 84 25455 78V0H24845V78Q24884 81 24934.5 92.5Q24985 104 25019 128Q25058 157 25072.5 215.5Q25087 274 25087 412V1084Q25087 1134 25071.5 1178.5Q25056 1223 25023 1255Q24988 1289 24942.5 1308.5Q24897 1328 24839 1339V1419H25373L26149 459V996Q26149 1124 26132.0 1186.5Q26115 1249 26078 1279Q26049 1302 25992.0 1318.5Q25935 1335 25900 1341V1419H26509Z M28138 0H27365V78Q27419 82 27492.0 97.5Q27565 113 27565 136Q27565 144 27563.5 154.0Q27562 164 27555 181L27434 475H26944Q26927 434 26906.5 379.0Q26886 324 26871 281Q26852 225 26848.5 200.0Q26845 175 26845 165Q26845 133 26893.5 110.5Q26942 88 27055 78V0H26473V78Q26506 80 26547.5 88.5Q26589 97 26613 112Q26654 136 26682.5 171.0Q26711 206 26730 254Q26846 535 26962.5 817.0Q27079 1099 27220 1439H27420Q27616 957 27727.0 677.0Q27838 397 27916 213Q27929 183 27949.0 158.5Q27969 134 28006 112Q28034 96 28071.0 88.0Q28108 80 28138 78ZM27393 574 27187 1088 26984 574Z M29486 455 29458 0H28151V78Q28186 81 28233.0 87.5Q28280 94 28295 100Q28331 114 28345.0 139.0Q28359 164 28359 203V1204Q28359 1240 28348.0 1263.5Q28337 1287 28295 1306Q28264 1320 28220.5 1328.5Q28177 1337 28151 1341V1419H28930V1341Q28898 1338 28854.5 1332.5Q28811 1327 28779 1317Q28740 1304 28727.0 1276.5Q28714 1249 28714 1214V281Q28714 215 28723.0 177.0Q28732 139 28758 121Q28784 102 28830.5 96.5Q28877 91 28959 91Q29039 91 29114.5 100.5Q29190 110 29223 142Q29274 193 29327.5 285.5Q29381 378 29413 455Z" fill="#fff" stroke="#000" stroke-width="97.36" paint-order="stroke" stroke-linejoin="round" transform="translate(62.00,452) scale(0.03595,-0.03595)"/><text style="text-anchor:middle;font-family:'Georgia', serif;font-size:18;letter-spacing:3.5;fill:#efeaf6;opacity:.92" x="592" y="500">CRITICAL THEORY  |  SOCIAL ANALYSIS  |  POLITICAL PHILOSOPHY AND THEOLOGY</text></svg>